<svg xmlns="http://www.w3.org/2000/svg" version="1.1" xmlns:xlink="http://www.w3.org/1999/xlink" width="64" height="64"><svg width="64" height="64" viewBox="0 0 64 64" fill="none" xmlns="http://www.w3.org/2000/svg">
<circle cx="32" cy="32" r="32" fill="white"></circle>
<path d="M32 10C33.8043 10.0001 35.5448 10.5957 39.0268 11.7889L40.2994 12.2237C46.9816 14.5104 50.3221 15.6545 51.1599 16.8478C51.9998 18.0434 52 21.6003 52 28.7047V32.201C52 44.7293 42.5806 50.8121 36.6694 53.3922C35.0672 54.0921 34.2664 54.4429 32 54.4429C29.7333 54.4429 28.9328 54.0923 27.3306 53.3922C21.4195 50.81 12 44.7321 12 32.201V28.7047C12 21.5981 12.0001 18.0434 12.8401 16.8478C13.6784 15.6546 17.0192 14.5101 23.7006 12.2237L24.9733 11.7889C28.4555 10.5956 30.1955 10 32 10ZM32.0023 16.173C31.6653 16.173 31.3417 16.3063 31.1033 16.5444C30.8649 16.7828 30.7297 17.1062 30.7296 17.4434V29.5516L19.7627 25.163C19.4495 25.0366 19.0976 25.04 18.7867 25.1721C18.4763 25.3041 18.2316 25.5547 18.1051 25.8673C17.9786 26.1805 17.9821 26.5324 18.1141 26.8433C18.1795 26.9968 18.2737 27.1362 18.3927 27.2532C18.512 27.3704 18.6542 27.4623 18.8093 27.5249L29.9597 31.9838L22.0974 42.0946C21.8962 42.361 21.807 42.6966 21.8506 43.0277C21.8944 43.3586 22.0671 43.6603 22.3306 43.8655C22.5944 44.0705 22.9295 44.1628 23.2613 44.1236C23.5926 44.0844 23.895 43.9174 24.1037 43.657L32.0023 33.4987L39.9031 43.648C40.0046 43.7825 40.1312 43.8961 40.2766 43.981C40.422 44.0656 40.5832 44.1196 40.7499 44.1417C40.9171 44.1639 41.0878 44.1542 41.2505 44.1101C41.4131 44.0661 41.5659 43.9893 41.6988 43.8859C41.8314 43.7827 41.9423 43.654 42.0248 43.5077C42.1076 43.3612 42.1614 43.1991 42.1811 43.0321C42.2008 42.8649 42.1867 42.6938 42.1403 42.5317C42.0939 42.3699 42.0146 42.2194 41.9093 42.0879L34.0471 31.9768L45.1951 27.5249C45.3498 27.4623 45.4905 27.3701 45.6095 27.2532C45.7289 27.136 45.8249 26.9972 45.8903 26.8433C45.9557 26.6894 45.9886 26.5236 45.99 26.3564C45.9914 26.1892 45.962 26.0224 45.8994 25.8673C45.8368 25.7123 45.7426 25.5721 45.6255 25.4529C45.5082 25.3336 45.3695 25.2375 45.2155 25.1721C45.0616 25.1067 44.896 25.074 44.7288 25.0725C44.5614 25.071 44.3947 25.1004 44.2395 25.163L33.2726 29.5516V17.4434C33.2726 17.1064 33.1395 16.7827 32.9013 16.5444C32.663 16.3061 32.3392 16.1732 32.0023 16.173Z" fill="#3F37C9"></path>
</svg><style>@media (prefers-color-scheme: light) { :root { filter: none; } }
@media (prefers-color-scheme: dark) { :root { filter: none; } }
</style></svg>