<svg width="78" height="77" viewBox="0 0 78 77" fill="none" xmlns="http://www.w3.org/2000/svg">
<path fill-rule="evenodd" clip-rule="evenodd" d="M16.6292 16.2631C28.8048 4.10353 48.6003 4.23186 60.8497 16.4845C73.1055 28.7403 73.2338 48.5454 61.055 60.721C48.8762 72.8966 29.0743 72.7715 16.8185 60.5156C13.3707 57.0828 10.7658 52.8974 9.2082 48.2881C7.65062 43.6788 7.18284 38.7712 7.8416 33.9507C7.92796 33.318 8.26211 32.7456 8.77053 32.3593C9.27895 31.973 9.91999 31.8045 10.5526 31.8909C11.1853 31.9773 11.7577 32.3114 12.144 32.8198C12.5303 33.3283 12.6988 33.9693 12.6124 34.6019C12.0531 38.6872 12.449 42.8464 13.7689 46.7528C15.0889 50.6591 17.2969 54.2061 20.2193 57.1148C30.6304 67.5227 47.3875 67.5836 57.6542 57.3201C67.9176 47.0535 67.8567 30.2964 57.4488 19.8853C47.0442 9.4839 30.2967 9.41653 20.0301 19.6672L22.4299 19.6768C22.7459 19.6783 23.0585 19.742 23.3499 19.8642C23.6412 19.9865 23.9057 20.165 24.1281 20.3895C24.3505 20.614 24.5265 20.8801 24.646 21.1726C24.7656 21.4651 24.8264 21.7783 24.8249 22.0943C24.8234 22.4102 24.7597 22.7229 24.6374 23.0142C24.5152 23.3056 24.3367 23.57 24.1122 23.7924C23.8877 24.0148 23.6216 24.1908 23.3291 24.3104C23.0366 24.43 22.7234 24.4908 22.4074 24.4893L14.239 24.4508C13.6047 24.4474 12.9974 24.1937 12.5492 23.7449C12.101 23.2961 11.8481 22.6884 11.8456 22.0542L11.8039 13.8922C11.8022 13.5762 11.8628 13.2629 11.9821 12.9703C12.1015 12.6778 12.2773 12.4116 12.4996 12.1869C12.7218 11.9623 12.9862 11.7836 13.2774 11.6611C13.5687 11.5387 13.8813 11.4748 14.1973 11.4731C14.5133 11.4714 14.8265 11.532 15.1191 11.6513C15.4117 11.7707 15.6779 11.9465 15.9025 12.1688C16.1272 12.391 16.3058 12.6553 16.4283 12.9466C16.5508 13.2379 16.6147 13.5505 16.6164 13.8665L16.6292 16.2631ZM38.8309 23.2573C39.4691 23.2573 40.0811 23.5108 40.5324 23.9621C40.9836 24.4133 41.2371 25.0254 41.2371 25.6635V37.5023L48.5553 44.8173C48.7853 45.0391 48.9687 45.3046 49.095 45.5981C49.2212 45.8916 49.2877 46.2073 49.2906 46.5268C49.2936 46.8463 49.2328 47.1632 49.112 47.459C48.9911 47.7547 48.8126 48.0235 48.5868 48.2495C48.361 48.4756 48.0924 48.6544 47.7967 48.7755C47.5011 48.8966 47.1842 48.9576 46.8647 48.955C46.5452 48.9524 46.2295 48.8862 45.9358 48.7602C45.6422 48.6342 45.3766 48.451 45.1545 48.2213L36.4278 39.4947V25.6667C36.4278 25.0286 36.6814 24.4165 37.1326 23.9653C37.5839 23.514 38.1959 23.2605 38.8341 23.2605" fill="#3F37C9"/>
</svg>
