<svg width="78" height="77" viewBox="0 0 78 77" fill="none" xmlns="http://www.w3.org/2000/svg">
<path d="M39.0003 70.5834C56.7199 70.5834 71.0837 56.2197 71.0837 38.5001C71.0837 20.7805 56.7199 6.41675 39.0003 6.41675C21.2807 6.41675 6.91699 20.7805 6.91699 38.5001C6.91699 43.6334 8.12333 48.4844 10.2633 52.7868C10.8344 53.9289 11.0237 55.2347 10.6932 56.47L8.78424 63.6117C8.59518 64.3185 8.59535 65.0625 8.78474 65.7692C8.97413 66.4759 9.34608 67.1203 9.86325 67.6378C10.3804 68.1553 11.0246 68.5277 11.7312 68.7175C12.4377 68.9074 13.1818 68.908 13.8887 68.7194L21.0305 66.8072C22.2701 66.494 23.5815 66.6458 24.7168 67.2339C29.1538 69.443 34.0438 70.5898 39.0003 70.5834Z" stroke="#868899" stroke-width="4.8125"/>
<path d="M45.0967 23.4449C44.9833 23.1542 44.7849 22.9045 44.5273 22.7285C44.2697 22.5524 43.9649 22.4583 43.6529 22.4583C43.3409 22.4583 43.0362 22.5524 42.7786 22.7285C42.521 22.9045 42.3225 23.1542 42.2092 23.4449L40.8296 26.958C40.7529 27.157 40.6357 27.3379 40.4855 27.4892C40.3353 27.6405 40.1553 27.759 39.9569 27.8371L36.4566 29.2231C36.1668 29.3386 35.9182 29.5384 35.7431 29.7966C35.568 30.0548 35.4744 30.3597 35.4744 30.6717C35.4744 30.9837 35.568 31.2885 35.7431 31.5468C35.9182 31.805 36.1668 32.0048 36.4566 32.1203L39.9569 33.5063C40.155 33.584 40.3348 33.702 40.485 33.8528C40.6352 34.0035 40.7525 34.1838 40.8296 34.3821L42.2092 37.892C42.7289 39.2075 44.5833 39.2075 45.0967 37.892L46.4762 34.3789C46.5536 34.1802 46.6715 33.9998 46.8222 33.849C46.973 33.6983 47.1534 33.5804 47.3521 33.503L50.8524 32.117C51.1423 32.0016 51.3908 31.8018 51.5659 31.5436C51.7411 31.2853 51.8347 30.9805 51.8347 30.6685C51.8347 30.3565 51.7411 30.0516 51.5659 29.7934C51.3908 29.5351 51.1423 29.3354 50.8524 29.2199L47.3521 27.8339C47.1531 27.7562 46.9725 27.6378 46.8217 27.4865C46.6709 27.3352 46.5533 27.1541 46.4762 26.9548L45.0967 23.4449ZM32.69 42.127C32.5767 41.8364 32.3782 41.5866 32.1206 41.4106C31.863 41.2346 31.5583 41.1404 31.2463 41.1404C30.9343 41.1404 30.6295 41.2346 30.3719 41.4106C30.1143 41.5866 29.9159 41.8364 29.8025 42.127L29.2988 43.4072C29.2218 43.6055 29.1045 43.7858 28.9543 43.9365C28.8041 44.0873 28.6242 44.2053 28.4262 44.283L27.1492 44.79C26.8594 44.9054 26.6108 45.1052 26.4357 45.3634C26.2606 45.6217 26.167 45.9265 26.167 46.2385C26.167 46.5505 26.2606 46.8554 26.4357 47.1136C26.6108 47.3719 26.8594 47.5716 27.1492 47.6871L28.4262 48.1908C28.8272 48.3512 29.1416 48.6656 29.2988 49.0699L29.8025 50.35C30.3191 51.6654 32.1735 51.6654 32.69 50.35L33.1937 49.0667C33.2708 48.8683 33.3881 48.6881 33.5383 48.5373C33.6885 48.3866 33.8683 48.2686 34.0664 48.1908L35.3433 47.6871C35.6332 47.5716 35.8817 47.3719 36.0569 47.1136C36.232 46.8554 36.3256 46.5505 36.3256 46.2385C36.3256 45.9265 36.232 45.6217 36.0569 45.3634C35.8817 45.1052 35.6332 44.9054 35.3433 44.79L34.0664 44.283C33.8683 44.2053 33.6885 44.0873 33.5383 43.9365C33.3881 43.7858 33.2708 43.6055 33.1937 43.4072L32.69 42.127Z" fill="#868899"/>
</svg>
