<svg width="78" height="77" viewBox="0 0 78 77" fill="none" xmlns="http://www.w3.org/2000/svg">
<path d="M39.0003 70.5833C56.7199 70.5833 71.0837 56.2196 71.0837 38.5C71.0837 20.7803 56.7199 6.41663 39.0003 6.41663C21.2807 6.41663 6.91699 20.7803 6.91699 38.5C6.91699 43.6333 8.12333 48.4843 10.2633 52.7867C10.8344 53.9288 11.0237 55.2346 10.6932 56.4698L8.78424 63.6116C8.59518 64.3183 8.59535 65.0624 8.78474 65.7691C8.97413 66.4758 9.34608 67.1202 9.86325 67.6377C10.3804 68.1552 11.0246 68.5276 11.7312 68.7174C12.4377 68.9072 13.1818 68.9079 13.8887 68.7192L21.0305 66.8071C22.2701 66.4939 23.5815 66.6457 24.7168 67.2338C29.1538 69.4429 34.0438 70.5896 39.0003 70.5833Z" stroke="#3F37C9" stroke-width="4.8125"/>
<path d="M45.0967 23.445C44.9833 23.1543 44.7849 22.9046 44.5273 22.7286C44.2697 22.5526 43.9649 22.4584 43.6529 22.4584C43.3409 22.4584 43.0362 22.5526 42.7786 22.7286C42.521 22.9046 42.3225 23.1543 42.2092 23.445L40.8296 26.9582C40.7529 27.1571 40.6357 27.338 40.4855 27.4893C40.3353 27.6406 40.1553 27.7591 39.9569 27.8372L36.4566 29.2232C36.1668 29.3387 35.9182 29.5385 35.7431 29.7967C35.568 30.055 35.4744 30.3598 35.4744 30.6718C35.4744 30.9838 35.568 31.2887 35.7431 31.5469C35.9182 31.8051 36.1668 32.0049 36.4566 32.1204L39.9569 33.5064C40.155 33.5841 40.3348 33.7021 40.485 33.8529C40.6352 34.0036 40.7525 34.1839 40.8296 34.3822L42.2092 37.8922C42.7289 39.2076 44.5833 39.2076 45.0967 37.8922L46.4762 34.379C46.5536 34.1804 46.6715 33.9999 46.8222 33.8492C46.973 33.6984 47.1534 33.5806 47.3521 33.5032L50.8524 32.1172C51.1423 32.0017 51.3908 31.8019 51.5659 31.5437C51.7411 31.2855 51.8347 30.9806 51.8347 30.6686C51.8347 30.3566 51.7411 30.0518 51.5659 29.7935C51.3908 29.5353 51.1423 29.3355 50.8524 29.22L47.3521 27.834C47.1531 27.7563 46.9725 27.638 46.8217 27.4866C46.6709 27.3353 46.5533 27.1542 46.4762 26.955L45.0967 23.445ZM32.69 42.1272C32.5767 41.8365 32.3782 41.5868 32.1206 41.4107C31.863 41.2347 31.5583 41.1405 31.2463 41.1405C30.9343 41.1405 30.6295 41.2347 30.3719 41.4107C30.1143 41.5868 29.9159 41.8365 29.8025 42.1272L29.2988 43.4073C29.2218 43.6057 29.1045 43.7859 28.9543 43.9366C28.8041 44.0874 28.6242 44.2054 28.4262 44.2832L27.1492 44.7901C26.8594 44.9055 26.6108 45.1053 26.4357 45.3635C26.2606 45.6218 26.167 45.9266 26.167 46.2386C26.167 46.5507 26.2606 46.8555 26.4357 47.1137C26.6108 47.372 26.8594 47.5717 27.1492 47.6872L28.4262 48.1909C28.8272 48.3513 29.1416 48.6657 29.2988 49.07L29.8025 50.3501C30.3191 51.6655 32.1735 51.6655 32.69 50.3501L33.1937 49.0668C33.2708 48.8684 33.3881 48.6882 33.5383 48.5374C33.6885 48.3867 33.8683 48.2687 34.0664 48.1909L35.3433 47.6872C35.6332 47.5717 35.8817 47.372 36.0569 47.1137C36.232 46.8555 36.3256 46.5507 36.3256 46.2386C36.3256 45.9266 36.232 45.6218 36.0569 45.3635C35.8817 45.1053 35.6332 44.9055 35.3433 44.7901L34.0664 44.2832C33.8683 44.2054 33.6885 44.0874 33.5383 43.9366C33.3881 43.7859 33.2708 43.6057 33.1937 43.4073L32.69 42.1272Z" fill="#3F37C9"/>
</svg>
