<svg width="35" height="35" viewBox="0 0 35 35" fill="none" xmlns="http://www.w3.org/2000/svg">
<path fill-rule="evenodd" clip-rule="evenodd" d="M17.4072 0H17.5928C21.3516 0 24.2965 9.70308e-08 26.5951 0.309302C28.9458 0.625116 30.8016 1.28605 32.2586 2.7414C33.7156 4.19837 34.3749 6.05419 34.6907 8.40651C35 10.7035 35 13.6484 35 17.4072V17.5928C35 21.3516 35 24.2965 34.6907 26.5951C34.3749 28.9458 33.714 30.8016 32.2586 32.2586C30.8016 33.7156 28.9458 34.3749 26.5935 34.6907C24.2965 35 21.3516 35 17.5928 35H17.4072C13.6484 35 10.7035 35 8.40488 34.6907C6.05419 34.3749 4.19837 33.714 2.7414 32.2586C1.28442 30.8016 0.625116 28.9458 0.309302 26.5935C9.70308e-08 24.2965 0 21.3516 0 17.5928V17.4072C0 13.6484 9.70308e-08 10.7035 0.309302 8.40488C0.625116 6.05419 1.28605 4.19837 2.7414 2.7414C4.19837 1.28442 6.05419 0.625116 8.40651 0.309302C10.7035 9.70308e-08 13.6484 0 17.4072 0ZM8.73046 2.72837C6.65 3.00837 5.39488 3.54233 4.4686 4.4686C3.5407 5.39651 3.00837 6.65 2.72837 8.73209C2.44512 10.8484 2.44186 13.6288 2.44186 17.5C2.44186 21.3712 2.44512 24.1516 2.72837 26.2679C3.00837 28.35 3.54233 29.6051 4.4686 30.533C5.39651 31.4593 6.65 31.9916 8.73209 32.2716C10.8484 32.5549 13.6288 32.5581 17.5 32.5581C21.3712 32.5581 24.1516 32.5549 26.2679 32.2716C28.35 31.9916 29.6051 31.4577 30.533 30.5314C31.4593 29.6035 31.9916 28.35 32.2716 26.2679C32.5549 24.1516 32.5581 21.3712 32.5581 17.5C32.5581 13.6288 32.5549 10.8484 32.2716 8.73209C31.9916 6.65 31.4577 5.39488 30.5314 4.46698C29.6035 3.5407 28.35 3.00837 26.2679 2.72837C24.1516 2.44512 21.3712 2.44186 17.5 2.44186C13.6288 2.44186 10.8467 2.44512 8.73046 2.72837ZM15.0874 8.47488C15.2037 8.58546 15.2971 8.71788 15.3621 8.86456C15.4272 9.01123 15.4627 9.1693 15.4666 9.32971C15.4706 9.49013 15.4428 9.64974 15.385 9.79943C15.3272 9.94912 15.2405 10.086 15.1298 10.2021L10.4788 15.0858C10.3648 15.2055 10.2277 15.3008 10.0757 15.3659C9.92377 15.431 9.76019 15.4645 9.59488 15.4645C9.42958 15.4645 9.26599 15.431 9.11405 15.3659C8.9621 15.3008 8.82496 15.2055 8.71093 15.0858L6.85023 13.1323C6.73492 13.0172 6.64381 12.8802 6.58229 12.7293C6.52076 12.5784 6.49005 12.4167 6.49198 12.2538C6.49391 12.0909 6.52843 11.93 6.59352 11.7806C6.6586 11.6312 6.75292 11.4964 6.87093 11.384C6.98894 11.2717 7.12824 11.1841 7.28063 11.1264C7.43302 11.0687 7.59542 11.0421 7.75825 11.0482C7.92108 11.0542 8.08104 11.0928 8.22873 11.1617C8.37641 11.2305 8.50881 11.3282 8.61814 11.4491L9.59488 12.4747L13.3619 8.51884C13.5851 8.28449 13.8923 8.14839 14.2159 8.14046C14.5395 8.13252 14.853 8.25177 15.0874 8.47488ZM17.907 12.6163C17.907 12.2925 18.0356 11.9819 18.2646 11.753C18.4935 11.524 18.8041 11.3953 19.1279 11.3953H27.2674C27.5913 11.3953 27.9018 11.524 28.1308 11.753C28.3597 11.9819 28.4884 12.2925 28.4884 12.6163C28.4884 12.9401 28.3597 13.2506 28.1308 13.4796C27.9018 13.7086 27.5913 13.8372 27.2674 13.8372H19.1279C18.8041 13.8372 18.4935 13.7086 18.2646 13.4796C18.0356 13.2506 17.907 12.9401 17.907 12.6163ZM15.0858 19.8719C15.5742 20.3374 15.5937 21.1091 15.1281 21.5974L10.4772 26.4812C10.3632 26.6008 10.226 26.6961 10.0741 26.7612C9.92214 26.8263 9.75856 26.8599 9.59326 26.8599C9.42795 26.8599 9.26437 26.8263 9.11242 26.7612C8.96047 26.6961 8.82333 26.6008 8.7093 26.4812L6.8486 24.5277C6.73329 24.4126 6.64218 24.2755 6.58066 24.1246C6.51913 23.9738 6.48843 23.8121 6.49036 23.6492C6.49228 23.4862 6.52681 23.3253 6.59189 23.176C6.65697 23.0266 6.75129 22.8917 6.8693 22.7794C6.98731 22.667 7.12661 22.5794 7.279 22.5217C7.4314 22.4641 7.59379 22.4375 7.75662 22.4435C7.91945 22.4496 8.07942 22.4882 8.2271 22.557C8.37478 22.6259 8.50718 22.7236 8.61651 22.8444L9.59326 23.87L13.3602 19.9142C13.5835 19.6798 13.8907 19.5437 14.2143 19.5358C14.5378 19.5279 14.8513 19.6487 15.0858 19.8719ZM17.907 24.0116C17.907 23.6878 18.0356 23.3773 18.2646 23.1483C18.4935 22.9193 18.8041 22.7907 19.1279 22.7907H27.2674C27.5913 22.7907 27.9018 22.9193 28.1308 23.1483C28.3597 23.3773 28.4884 23.6878 28.4884 24.0116C28.4884 24.3354 28.3597 24.646 28.1308 24.875C27.9018 25.1039 27.5913 25.2326 27.2674 25.2326H19.1279C18.8041 25.2326 18.4935 25.1039 18.2646 24.875C18.0356 24.646 17.907 24.3354 17.907 24.0116Z" fill="#3F37C9"/>
</svg>
