<svg width="20" height="20" viewBox="0 0 20 20" fill="none" xmlns="http://www.w3.org/2000/svg">
<path d="M10 0C14.714 0 17.0712 -0.000132799 18.5352 1.46387C20.0001 2.92987 20 5.28601 20 10C20 14.714 20.0002 17.0712 18.5352 18.5352C17.0722 20.0002 14.714 20 10 20C5.28601 20 2.92887 20.0001 1.46387 18.5352C-0.000132799 17.0722 0 14.714 0 10C0 5.286 -0.000132799 2.92887 1.46387 1.46387C2.92987 -0.000132799 5.286 0 10 0ZM6.97852 11.2783C6.8572 11.2784 6.73887 11.3154 6.63867 11.3838C6.53831 11.4524 6.46018 11.5498 6.41602 11.6631L6.21973 12.1611C6.18971 12.2384 6.14445 12.3094 6.08594 12.3682C6.02745 12.4268 5.95699 12.4727 5.87988 12.5029L5.38281 12.7002C5.26988 12.7452 5.17271 12.8232 5.10449 12.9238C5.03634 13.0244 5.00001 13.1432 5 13.2646C5 13.3861 5.03635 13.5049 5.10449 13.6055C5.17271 13.7061 5.26988 13.7841 5.38281 13.8291L5.87988 14.0254C6.03613 14.0879 6.15848 14.2107 6.21973 14.3682L6.41602 14.8662C6.61726 15.3787 7.33977 15.3787 7.54102 14.8662L7.7373 14.3662C7.76732 14.289 7.81359 14.2188 7.87207 14.1602C7.93045 14.1016 8.00022 14.0557 8.07715 14.0254L8.5752 13.8291C8.68808 13.7841 8.78531 13.706 8.85352 13.6055C8.9216 13.5049 8.95801 13.3861 8.95801 13.2646C8.958 13.1432 8.92161 13.0244 8.85352 12.9238C8.78531 12.8232 8.68809 12.7452 8.5752 12.7002L8.07715 12.5029C8.00023 12.4727 7.93044 12.4267 7.87207 12.3682C7.81355 12.3094 7.76732 12.2384 7.7373 12.1611L7.54102 11.6631C7.49686 11.5498 7.41969 11.4524 7.31934 11.3838C7.219 11.3152 7.10003 11.2783 6.97852 11.2783ZM11.8125 4C11.6909 4 11.572 4.03688 11.4717 4.10547C11.3714 4.17405 11.2941 4.27158 11.25 4.38477L10.7129 5.75293C10.683 5.83044 10.6366 5.90101 10.5781 5.95996C10.5196 6.01886 10.4493 6.06528 10.3721 6.0957L9.00879 6.63574C8.89589 6.68073 8.79868 6.75878 8.73047 6.85938C8.66243 6.95989 8.62598 7.07881 8.62598 7.2002C8.62603 7.32164 8.66232 7.44049 8.73047 7.54102C8.79869 7.64163 8.89586 7.71967 9.00879 7.76465L10.3721 8.30469C10.4492 8.33499 10.5196 8.38072 10.5781 8.43945C10.6366 8.49817 10.6829 8.56825 10.7129 8.64551L11.25 10.0127C11.4525 10.5252 12.175 10.5252 12.375 10.0127L12.9121 8.64453C12.9423 8.56713 12.9881 8.49624 13.0469 8.4375C13.1056 8.37876 13.1765 8.33289 13.2539 8.30273L14.6172 7.7627C14.73 7.71774 14.8273 7.64055 14.8955 7.54004C14.9637 7.43943 15 7.3198 15 7.19824C14.9999 7.07683 14.9637 6.95791 14.8955 6.85742C14.8273 6.75688 14.7301 6.67973 14.6172 6.63477L13.2539 6.09473C13.1764 6.06443 13.1056 6.01795 13.0469 5.95898C12.9882 5.90003 12.9421 5.82956 12.9121 5.75195L12.375 4.38477C12.3309 4.27161 12.2536 4.17405 12.1533 4.10547C12.053 4.0369 11.934 4.00001 11.8125 4Z" fill="#3F37C9"/>
</svg>
