<svg width="36" height="36" viewBox="0 0 36 36" fill="none" xmlns="http://www.w3.org/2000/svg">
<path d="M34.5 18H1.5M18 1.5V34.5M19.65 18C19.65 19.7504 20.3454 21.4292 21.5831 22.6669C22.8208 23.9046 24.4996 24.6 26.25 24.6M16.35 18C16.35 19.7504 15.6546 21.4292 14.4169 22.6669C13.1792 23.9046 11.5004 24.6 9.75 24.6" stroke="#3F37C9" stroke-width="2.4" stroke-linecap="round"/>
<path d="M18.0001 14.7578C18.0011 13.5631 18.4009 12.4029 19.1363 11.4613C19.8716 10.5197 20.9003 9.85066 22.0591 9.56026C24.7041 8.90026 27.1015 11.2961 26.4399 13.9427C26.1495 15.1015 25.4804 16.1302 24.5388 16.8656C23.5973 17.6009 22.4371 18.0007 21.2424 18.0017H18.0001M18.0001 14.7578V18.0017M18.0001 14.7578C17.9992 13.5631 17.5994 12.4029 16.864 11.4613C16.1287 10.5197 15.1 9.85066 13.9411 9.56026C11.2962 8.90026 8.89875 11.2961 9.5604 13.9427C9.8508 15.1015 10.5199 16.1302 11.4615 16.8656C12.403 17.6009 13.5632 18.0007 14.7579 18.0017H18.0001" stroke="#3F37C9" stroke-width="2.4"/>
<path d="M1.5 18C1.5 10.2219 1.5 6.33285 3.9156 3.9156C6.3345 1.5 10.2219 1.5 18 1.5C25.7781 1.5 29.6671 1.5 32.0827 3.9156C34.5 6.3345 34.5 10.2219 34.5 18C34.5 25.7781 34.5 29.6671 32.0827 32.0827C29.6688 34.5 25.7781 34.5 18 34.5C10.2219 34.5 6.33285 34.5 3.9156 32.0827C1.5 29.6688 1.5 25.7781 1.5 18Z" stroke="#3F37C9" stroke-width="2.4"/>
</svg>
