<svg width="35" height="36" viewBox="0 0 35 36" fill="none" xmlns="http://www.w3.org/2000/svg">
<path fill-rule="evenodd" clip-rule="evenodd" d="M15.0397 1.05787C15.808 0.690619 16.6487 0.5 17.5002 0.5C18.3518 0.5 19.1925 0.690619 19.9608 1.05787C20.638 1.38163 21.2558 1.91013 22.115 2.64164L22.2515 2.75714C22.668 3.11239 22.7993 3.22089 22.9323 3.31015C23.2701 3.53765 23.6498 3.6934 24.0471 3.77215C24.2046 3.80365 24.3743 3.8194 24.9203 3.8614L25.0971 3.8754C26.2206 3.96465 27.0326 4.0294 27.7396 4.27791C28.5427 4.5625 29.2722 5.02286 29.8747 5.62536C30.4772 6.22786 30.9375 6.95731 31.2221 7.76044C31.4706 8.46745 31.5336 9.27945 31.6246 10.403L31.6386 10.5797C31.6807 11.1257 31.6964 11.2972 31.7279 11.453C31.8067 11.852 31.9642 12.2317 32.1899 12.5695C32.2792 12.7007 32.3877 12.832 32.7429 13.2485L32.8584 13.385C33.5917 14.2425 34.1184 14.862 34.4422 15.5375C35.1859 17.095 35.1859 18.9045 34.4422 20.4603C34.1202 21.1376 33.5917 21.7553 32.8584 22.6146L32.7429 22.7511C32.5473 22.9686 32.3627 23.1958 32.1899 23.4318C31.9624 23.7696 31.8067 24.1493 31.7279 24.5466C31.6964 24.7041 31.6824 24.8739 31.6386 25.4199L31.6229 25.5966C31.5354 26.7201 31.4706 27.5321 31.2204 28.2391C30.9371 29.0427 30.4774 29.7726 29.875 30.3753C29.2727 30.9779 28.543 31.438 27.7396 31.7217C27.0326 31.9702 26.2206 32.0332 25.0971 32.1242L24.9203 32.1382C24.6279 32.1533 24.3365 32.1831 24.0471 32.2274C23.6492 32.3082 23.2706 32.465 22.9323 32.6894C22.6957 32.8622 22.4679 33.0468 22.2498 33.2424L22.115 33.3579C21.2575 34.0912 20.638 34.618 19.9625 34.9417C19.194 35.3092 18.353 35.5 17.5011 35.5C16.6493 35.5 15.8082 35.3092 15.0397 34.9417C14.3625 34.6197 13.7447 34.0912 12.8854 33.3579L12.7489 33.2424C12.532 33.0469 12.3053 32.8623 12.0699 32.6894C11.7311 32.4648 11.3519 32.3079 10.9534 32.2274C10.664 32.1831 10.3725 32.1533 10.0802 32.1382L9.9034 32.1224C8.77989 32.0349 7.96788 31.9702 7.26087 31.7199C6.4573 31.4366 5.7274 30.9769 5.12476 30.3746C4.52211 29.7722 4.06204 29.0426 3.77833 28.2391C3.52983 27.5321 3.46508 26.7201 3.37583 25.5966L3.36183 25.4199C3.3467 25.1275 3.31692 24.836 3.27257 24.5466C3.19185 24.1487 3.03497 23.7702 2.81057 23.4318C2.63778 23.1952 2.45321 22.9674 2.25756 22.7493L2.14206 22.6146C1.41055 21.7571 0.882047 21.1376 0.558293 20.4621C0.190766 19.6936 0 18.8525 0 18.0007C0 17.1488 0.190766 16.3078 0.558293 15.5393C0.882047 14.862 1.41055 14.2443 2.14206 13.385L2.25756 13.2485C2.45312 13.0315 2.63768 12.8049 2.81057 12.5695C3.03807 12.2317 3.19382 11.852 3.27257 11.453C3.30407 11.2955 3.31982 11.1257 3.36183 10.5797L3.37583 10.403C3.46508 9.27945 3.52983 8.46745 3.77833 7.76044C4.06182 6.95669 4.52179 6.22667 5.12445 5.62402C5.7271 5.02137 6.45712 4.5614 7.26087 4.27791C7.96788 4.0294 8.77989 3.96465 9.9034 3.8754L10.0802 3.8614C10.3725 3.84628 10.664 3.81649 10.9534 3.77215C11.3524 3.6934 11.7322 3.5359 12.0699 3.31015C12.2012 3.22089 12.3324 3.11239 12.7489 2.75714L12.8854 2.64164C13.7429 1.91013 14.3642 1.38163 15.0397 1.05787ZM18.8233 3.4344C18.4094 3.23725 17.9569 3.13494 17.4985 3.13494C17.0401 3.13494 16.5875 3.23725 16.1737 3.4344C15.85 3.5884 15.5087 3.86665 14.457 4.76091L14.4045 4.80466C14.0597 5.09866 13.8094 5.31392 13.5347 5.49767C12.9064 5.91767 12.2029 6.20992 11.4609 6.35518C11.1372 6.41993 10.8082 6.44618 10.3549 6.48293L10.2884 6.48818C8.91114 6.59843 8.47538 6.64393 8.13588 6.76293C7.26087 7.07268 6.57136 7.76044 6.26336 8.6372C6.14086 8.9767 6.09711 9.41246 5.98686 10.7897L5.98161 10.8562C5.94661 11.3095 5.9186 11.6385 5.8556 11.9622C5.7086 12.7042 5.4181 13.4077 4.99809 14.036C4.81259 14.3108 4.59734 14.561 4.30334 14.9075L4.25959 14.9583C3.36533 16.0083 3.08707 16.3513 2.93307 16.6733C2.73565 17.0873 2.6332 17.5402 2.6332 17.9989C2.6332 18.4576 2.73565 18.9105 2.93307 19.3246C3.08707 19.6483 3.36533 19.9896 4.25959 21.0413L4.30334 21.0938C4.59734 21.4386 4.81259 21.6888 4.99634 21.9636C5.41635 22.5918 5.7086 23.2953 5.85385 24.0373C5.9186 24.3611 5.94486 24.6901 5.98161 25.1434L5.98686 25.2099C6.09711 26.5871 6.14261 27.0229 6.26161 27.3624C6.57136 28.2374 7.25912 28.9269 8.13588 29.2349C8.47538 29.3574 8.91114 29.4012 10.2884 29.5114L10.3549 29.5167C10.8082 29.5517 11.1372 29.5797 11.4609 29.6427C12.2029 29.7897 12.9064 30.0802 13.5347 30.5002C13.8094 30.6857 14.0597 30.9009 14.4062 31.1949L14.457 31.2387C15.507 32.1329 15.85 32.4112 16.172 32.5652C16.586 32.7626 17.0389 32.8651 17.4976 32.8651C17.9563 32.8651 18.4092 32.7626 18.8233 32.5652C19.147 32.4112 19.4883 32.1329 20.54 31.2387L20.5925 31.1949C20.9373 30.9009 21.1875 30.6857 21.4623 30.5019C22.0905 30.0819 22.794 29.7897 23.5361 29.6444C23.9022 29.5823 24.2714 29.5396 24.6421 29.5167L24.7086 29.5114C26.0858 29.4012 26.5216 29.3557 26.8611 29.2367C27.7361 28.9269 28.4256 28.2391 28.7336 27.3624C28.8561 27.0229 28.8999 26.5854 29.0101 25.2099L29.0154 25.1434C29.0377 24.7721 29.0798 24.4024 29.1414 24.0356C29.2884 23.2953 29.5789 22.5918 29.9989 21.9636C30.1844 21.6888 30.3996 21.4386 30.6936 21.0921L30.7374 21.0413C31.6316 19.9913 31.9099 19.6483 32.0639 19.3263C32.2613 18.9123 32.3638 18.4594 32.3638 18.0007C32.3638 17.542 32.2613 17.0891 32.0639 16.675C31.9099 16.3513 31.6316 16.01 30.7374 14.9583L30.6936 14.9058C30.3996 14.561 30.1844 14.3108 30.0006 14.036C29.5819 13.4075 29.2906 12.7029 29.1431 11.9622C29.081 11.5961 29.0384 11.2269 29.0154 10.8562L29.0101 10.7897C28.8999 9.41246 28.8544 8.9767 28.7354 8.6372C28.4256 7.76219 27.7379 7.07268 26.8611 6.76468C26.5216 6.64218 26.0841 6.59843 24.7086 6.48818L24.6421 6.48293C24.2708 6.46057 23.9011 6.41851 23.5343 6.35693C22.7942 6.20922 22.0903 5.91789 21.4623 5.49942C21.1875 5.31392 20.9373 5.09866 20.5908 4.80466L20.54 4.76091C19.49 3.86665 19.147 3.5884 18.825 3.4344M24.5773 12.678C24.7003 12.8 24.798 12.9452 24.8646 13.1051C24.9312 13.2651 24.9656 13.4366 24.9656 13.6099C24.9656 13.7831 24.9312 13.9547 24.8646 14.1146C24.798 14.2746 24.7003 14.4197 24.5773 14.5418L15.7975 23.3216C15.5504 23.5682 15.2156 23.7068 14.8665 23.7068C14.5174 23.7068 14.1825 23.5682 13.9354 23.3216L10.4232 19.8093C10.2925 19.689 10.1875 19.5435 10.1145 19.3816C10.0415 19.2197 10.002 19.0446 9.99832 18.8671C9.99466 18.6895 10.0269 18.513 10.0932 18.3482C10.1595 18.1834 10.2584 18.0337 10.384 17.9081C10.5096 17.7825 10.6593 17.6836 10.8241 17.6174C10.9889 17.5511 11.1654 17.5188 11.3429 17.5225C11.5205 17.5261 11.6955 17.5656 11.8574 17.6386C12.0194 17.7116 12.1649 17.8166 12.2852 17.9473L14.8665 20.5268L22.7153 12.6797C22.9624 12.4331 23.2972 12.2946 23.6463 12.2946C23.9954 12.2946 24.3303 12.4331 24.5773 12.6797" fill="#3F37C9"/>
</svg>
