<svg width="78" height="77" viewBox="0 0 78 77" fill="none" xmlns="http://www.w3.org/2000/svg">
<path fill-rule="evenodd" clip-rule="evenodd" d="M50.6979 19.25C50.6979 16.0591 49.4303 12.9989 47.174 10.7426C44.9177 8.48632 41.8575 7.21875 38.6667 7.21875C35.4758 7.21875 32.4156 8.48632 30.1593 10.7426C27.903 12.9989 26.6354 16.0591 26.6354 19.25C26.6354 22.4409 27.903 25.5011 30.1593 27.7574C32.4156 30.0137 35.4758 31.2812 38.6667 31.2812C41.8575 31.2812 44.9177 30.0137 47.174 27.7574C49.4303 25.5011 50.6979 22.4409 50.6979 19.25ZM38.6667 12.0312C40.5812 12.0312 42.4173 12.7918 43.7711 14.1456C45.1249 15.4994 45.8854 17.3355 45.8854 19.25C45.8854 21.1645 45.1249 23.0006 43.7711 24.3544C42.4173 25.7082 40.5812 26.4688 38.6667 26.4688C36.7521 26.4688 34.916 25.7082 33.5622 24.3544C32.2085 23.0006 31.4479 21.1645 31.4479 19.25C31.4479 17.3355 32.2085 15.4994 33.5622 14.1456C34.916 12.7918 36.7521 12.0312 38.6667 12.0312ZM29.8437 57.75C29.8437 54.5591 28.5762 51.4989 26.3199 49.2426C24.0636 46.9863 21.0034 45.7188 17.8125 45.7188C14.6216 45.7188 11.5614 46.9863 9.30512 49.2426C7.04882 51.4989 5.78125 54.5591 5.78125 57.75C5.78125 60.9409 7.04882 64.0011 9.30512 66.2574C11.5614 68.5137 14.6216 69.7812 17.8125 69.7812C21.0034 69.7812 24.0636 68.5137 26.3199 66.2574C28.5762 64.0011 29.8437 60.9409 29.8437 57.75ZM17.8125 50.5312C19.727 50.5312 21.5631 51.2918 22.9169 52.6456C24.2707 53.9994 25.0312 55.8355 25.0312 57.75C25.0312 59.6645 24.2707 61.5006 22.9169 62.8544C21.5631 64.2082 19.727 64.9688 17.8125 64.9688C15.898 64.9688 14.0619 64.2082 12.7081 62.8544C11.3543 61.5006 10.5937 59.6645 10.5937 57.75C10.5937 55.8355 11.3543 53.9994 12.7081 52.6456C14.0619 51.2918 15.898 50.5312 17.8125 50.5312ZM59.5208 45.7188C62.7117 45.7188 65.7719 46.9863 68.0282 49.2426C70.2845 51.4989 71.5521 54.5591 71.5521 57.75C71.5521 60.9409 70.2845 64.0011 68.0282 66.2574C65.7719 68.5137 62.7117 69.7812 59.5208 69.7812C56.3299 69.7812 53.2697 68.5137 51.0135 66.2574C48.7572 64.0011 47.4896 60.9409 47.4896 57.75C47.4896 54.5591 48.7572 51.4989 51.0135 49.2426C53.2697 46.9863 56.3299 45.7188 59.5208 45.7188ZM66.7396 57.75C66.7396 55.8355 65.979 53.9994 64.6253 52.6456C63.2715 51.2918 61.4354 50.5312 59.5208 50.5312C57.6063 50.5312 55.7702 51.2918 54.4164 52.6456C53.0626 53.9994 52.3021 55.8355 52.3021 57.75C52.3021 59.6645 53.0626 61.5006 54.4164 62.8544C55.7702 64.2082 57.6063 64.9688 59.5208 64.9688C61.4354 64.9688 63.2715 64.2082 64.6253 62.8544C65.979 61.5006 66.7396 59.6645 66.7396 57.75Z" fill="#3F37C9"/>
<path d="M23.2827 24.2614C23.7493 23.8358 24.0298 23.2438 24.0637 22.6132C24.0977 21.9826 23.8824 21.3639 23.4643 20.8906C23.0462 20.4174 22.4587 20.1274 21.8288 20.0834C21.1988 20.0393 20.5767 20.2447 20.0968 20.6552C17.1069 23.2869 14.7127 26.5261 13.074 30.1565C11.4353 33.7869 10.5897 37.7252 10.5938 41.7083C10.5938 42.3465 10.8473 42.9585 11.2985 43.4098C11.7498 43.861 12.3618 44.1145 13 44.1145C13.6382 44.1145 14.2502 43.861 14.7015 43.4098C15.1528 42.9585 15.4063 42.3465 15.4063 41.7083C15.4021 38.4072 16.1025 35.1432 17.4608 32.1345C18.8191 29.1257 20.804 26.4416 23.2827 24.2614ZM57.2365 20.6552C56.7566 20.2447 56.1346 20.0393 55.5046 20.0834C54.8746 20.1274 54.2872 20.4174 53.8691 20.8906C53.451 21.3639 53.2357 21.9826 53.2696 22.6132C53.3036 23.2438 53.5841 23.8358 54.0506 24.2614C56.5294 26.4416 58.5142 29.1257 59.8725 32.1345C61.2308 35.1432 61.9313 38.4072 61.9271 41.7083C61.9271 42.3465 62.1806 42.9585 62.6319 43.4098C63.0831 43.861 63.6952 44.1145 64.3333 44.1145C64.9715 44.1145 65.5836 43.861 66.0348 43.4098C66.4861 42.9585 66.7396 42.3465 66.7396 41.7083C66.7437 37.7252 65.8981 33.7869 64.2594 30.1565C62.6206 26.5261 60.2264 23.2869 57.2365 20.6552ZM32.85 64.2372C32.5408 64.1481 32.2169 64.122 31.8974 64.1602C31.578 64.1985 31.2694 64.3005 30.99 64.4601C30.7107 64.6197 30.4662 64.8337 30.2709 65.0895C30.0757 65.3453 29.9338 65.6376 29.8535 65.9492C29.7733 66.2608 29.7563 66.5853 29.8037 66.9035C29.851 67.2218 29.9618 67.5273 30.1292 67.802C30.2967 68.0767 30.5176 68.3151 30.7789 68.5029C31.0401 68.6908 31.3363 68.8244 31.6501 68.8957C36.2533 70.0768 41.0801 70.0768 45.6833 68.8957C45.997 68.8244 46.2933 68.6908 46.5545 68.5029C46.8157 68.3151 47.0366 68.0767 47.2041 67.802C47.3716 67.5273 47.4823 67.2218 47.5297 66.9035C47.577 66.5853 47.5601 66.2608 47.4798 65.9492C47.3996 65.6376 47.2576 65.3453 47.0624 65.0895C46.8672 64.8337 46.6227 64.6197 46.3433 64.4601C46.0639 64.3005 45.7554 64.1985 45.4359 64.1602C45.1165 64.122 44.7926 64.1481 44.4834 64.2372C42.5828 64.7237 40.6286 64.9695 38.6667 64.9687C36.7048 64.9695 34.7506 64.7237 32.85 64.2372Z" fill="#3F37C9"/>
</svg>
