<svg width="35" height="36" viewBox="0 0 35 36" fill="none" xmlns="http://www.w3.org/2000/svg">
<path d="M10.5815 13.1163C10.5815 12.7925 10.4529 12.482 10.2239 12.253C9.99494 12.024 9.68439 11.8954 9.36058 11.8954C9.03677 11.8954 8.72622 12.024 8.49725 12.253C8.26828 12.482 8.13965 12.7925 8.13965 13.1163V27.7675C8.13965 28.0913 8.26828 28.4018 8.49725 28.6308C8.72622 28.8598 9.03677 28.9884 9.36058 28.9884C9.68439 28.9884 9.99494 28.8598 10.2239 28.6308C10.4529 28.4018 10.5815 28.0913 10.5815 27.7675V13.1163ZM17.5001 7.01166C17.8239 7.01166 18.1345 7.14029 18.3634 7.36926C18.5924 7.59823 18.721 7.90878 18.721 8.23259V27.7675C18.721 28.0913 18.5924 28.4018 18.3634 28.6308C18.1345 28.8598 17.8239 28.9884 17.5001 28.9884C17.1763 28.9884 16.8658 28.8598 16.6368 28.6308C16.4078 28.4018 16.2792 28.0913 16.2792 27.7675V8.23259C16.2792 7.90878 16.4078 7.59823 16.6368 7.36926C16.8658 7.14029 17.1763 7.01166 17.5001 7.01166ZM26.8606 19.6279C26.8606 19.3041 26.7319 18.9936 26.503 18.7646C26.274 18.5356 25.9635 18.407 25.6396 18.407C25.3158 18.407 25.0053 18.5356 24.7763 18.7646C24.5473 18.9936 24.4187 19.3041 24.4187 19.6279V27.7675C24.4187 28.0913 24.5473 28.4018 24.7763 28.6308C25.0053 28.8598 25.3158 28.9884 25.6396 28.9884C25.9635 28.9884 26.274 28.8598 26.503 28.6308C26.7319 28.4018 26.8606 28.0913 26.8606 27.7675V19.6279Z" fill="#3F37C9"/>
<path fill-rule="evenodd" clip-rule="evenodd" d="M17.4072 0.5C13.6484 0.5 10.7035 0.5 8.40488 0.809302C6.05419 1.12512 4.19837 1.78605 2.7414 3.2414C1.28442 4.69837 0.625116 6.55419 0.309302 8.90651C9.70308e-08 11.2035 0 14.1484 0 17.9072V18.0928C0 21.8516 9.70308e-08 24.7965 0.309302 27.0951C0.625116 29.4458 1.28605 31.3016 2.7414 32.7586C4.19837 34.2156 6.05419 34.8749 8.40651 35.1907C10.7035 35.5 13.6484 35.5 17.4072 35.5H17.5928C21.3516 35.5 24.2965 35.5 26.5951 35.1907C28.9458 34.8749 30.8016 34.214 32.2586 32.7586C33.7156 31.3016 34.3749 29.4458 34.6907 27.0935C35 24.7965 35 21.8516 35 18.0928V17.9072C35 14.1484 35 11.2035 34.6907 8.90488C34.3749 6.55419 33.714 4.69837 32.2586 3.2414C30.8016 1.78442 28.9458 1.12512 26.5935 0.809302C24.2965 0.5 21.3516 0.5 17.5928 0.5H17.4072ZM4.4686 4.9686C5.39651 4.0407 6.65 3.50837 8.73209 3.22837C10.8484 2.94512 13.6288 2.94186 17.5 2.94186C21.3712 2.94186 24.1516 2.94512 26.2679 3.22837C28.35 3.50837 29.6051 4.04233 30.533 4.9686C31.4593 5.89651 31.9916 7.15 32.2716 9.23209C32.5549 11.3484 32.5581 14.1288 32.5581 18C32.5581 21.8712 32.5549 24.6516 32.2716 26.7679C31.9916 28.85 31.4577 30.1051 30.5314 31.033C29.6035 31.9593 28.35 32.4916 26.2679 32.7716C24.1516 33.0549 21.3712 33.0581 17.5 33.0581C13.6288 33.0581 10.8484 33.0549 8.73209 32.7716C6.65 32.4916 5.39488 31.9577 4.46698 31.0314C3.5407 30.1035 3.00837 28.85 2.72837 26.7679C2.44512 24.6516 2.44186 21.8712 2.44186 18C2.44186 14.1288 2.44512 11.3484 2.72837 9.23209C3.00837 7.15 3.54233 5.89651 4.4686 4.9686Z" fill="#3F37C9"/>
</svg>
