<svg width="41" height="36" viewBox="0 0 41 36" fill="none" xmlns="http://www.w3.org/2000/svg">
<path d="M20.5 15.5C24.366 15.5 27.5 12.366 27.5 8.5C27.5 4.63401 24.366 1.5 20.5 1.5C16.634 1.5 13.5 4.63401 13.5 8.5C13.5 12.366 16.634 15.5 20.5 15.5Z" stroke="#3F37C9" stroke-width="2.5"/>
<path opacity="0.5" d="M31 13.75C33.8997 13.75 36.25 11.79 36.25 9.375C36.25 6.96 33.8997 5 31 5M10 13.75C7.10025 13.75 4.75 11.79 4.75 9.375C4.75 6.96 7.10025 5 10 5" stroke="#3F37C9" stroke-width="2.5" stroke-linecap="round"/>
<path d="M20.5 34.75C26.299 34.75 31 31.616 31 27.75C31 23.884 26.299 20.75 20.5 20.75C14.701 20.75 10 23.884 10 27.75C10 31.616 14.701 34.75 20.5 34.75Z" stroke="#3F37C9" stroke-width="2.5"/>
<path opacity="0.5" d="M34.5 31.25C37.5695 30.5763 39.75 28.8718 39.75 26.875C39.75 24.8782 37.5695 23.1737 34.5 22.5M6.5 31.25C3.4305 30.5763 1.25 28.8718 1.25 26.875C1.25 24.8782 3.4305 23.1737 6.5 22.5" stroke="#3F37C9" stroke-width="2.5" stroke-linecap="round"/>
</svg>
