<svg width="33" height="36" viewBox="0 0 33 36" fill="none" xmlns="http://www.w3.org/2000/svg">
<path fill-rule="evenodd" clip-rule="evenodd" d="M17.9025 0.579759C19.2185 -0.209491 20.9265 -0.247991 22.386 0.807259C27.041 4.17426 32.375 10.1785 32.375 18.694C32.375 25.3563 29.5138 29.6385 25.8685 32.211C23.6302 33.7913 21.1278 34.7065 18.8703 35.1685C18.1381 35.4217 17.3699 35.5547 16.5952 35.5623C16.4156 35.5623 16.2248 35.5547 16.023 35.5395C15.7473 35.5543 15.4713 35.5619 15.1952 35.5623C12.6402 35.5623 8.86025 34.7153 5.6945 32.1603C2.47275 29.5598 0 25.2845 0 18.694C0 13.3093 2.84375 9.68851 5.52125 7.64626C6.01195 7.25706 6.60701 7.02207 7.23123 6.97099C7.85545 6.9199 8.4808 7.05502 9.02825 7.35926C10.0503 7.91751 10.766 8.99376 10.8955 10.2573L11.046 11.722C11.1038 12.2855 11.3925 12.7545 11.6935 12.982C11.7882 13.0611 11.9036 13.1115 12.026 13.1273C12.089 13.1325 12.1905 13.1238 12.3392 13.0275C13.482 12.2838 14.35 10.9485 14.9327 9.37701C15.5103 7.81951 15.75 6.19201 15.75 5.08251V4.51726C15.75 2.81451 16.6145 1.35501 17.9025 0.579759ZM18.1667 32.6345C17.4706 32.7687 16.767 32.8604 16.0597 32.9093C15.2128 32.8218 14.147 32.5348 13.2545 31.9223C12.2308 31.2223 11.375 30.0603 11.375 28.0268C11.375 25.5733 12.894 23.7095 14.5075 22.516L14.5145 22.5825V22.6018C14.5145 23.0008 14.5145 23.6045 14.5898 24.231C14.665 24.8558 14.8242 25.6223 15.2197 26.296C15.4962 26.7668 15.9197 27.164 16.4955 27.3338C17.0607 27.5 17.598 27.395 18.018 27.1973C18.8177 26.821 19.3882 26.0335 19.628 25.2023C20.349 25.7903 21 26.7073 21 28.0285C21 30.1338 20.2178 31.301 19.3585 31.973C18.984 32.267 18.571 32.4823 18.1685 32.6345M23.2208 30.7883C23.6069 30.5678 23.9861 30.3274 24.3583 30.0673C27.3245 27.9725 29.7517 24.4778 29.7517 18.694C29.7517 11.3668 25.1632 6.05376 20.8495 2.93351C20.2807 2.52401 19.712 2.55726 19.257 2.83026C18.774 3.12076 18.3768 3.71751 18.3768 4.51726V5.08251C18.3768 6.49826 18.0845 8.43551 17.3967 10.2905C16.7125 12.1315 15.5768 14.0548 13.7708 15.229C12.4863 16.0638 11.1003 15.824 10.1115 15.075C9.177 14.3698 8.561 13.213 8.43675 11.9898L8.28625 10.5233C8.24075 10.0823 8.00275 9.78826 7.77175 9.66401C7.57575 9.55726 7.36225 9.54501 7.1155 9.73401C4.89825 11.4263 2.62675 14.3435 2.62675 18.694C2.62675 24.5478 4.78275 28.0495 7.34475 30.118C8.0395 30.678 8.7745 31.14 9.5165 31.518C9.03875 30.5555 8.75175 29.4005 8.75175 28.0285C8.75175 24.3465 11.0618 21.7758 13.0358 20.3408C13.4359 20.0416 13.9164 19.8691 14.4154 19.8454C14.9144 19.8217 15.4091 19.9479 15.8357 20.2078C16.6302 20.6873 17.1413 21.578 17.1413 22.5825C17.1413 22.9938 17.1412 23.4575 17.1973 23.9195C17.2066 23.9942 17.2171 24.0665 17.2288 24.1365C17.5088 23.4908 18.0232 22.992 18.634 22.726C19.3655 22.411 20.2965 22.4163 21.0735 23.0008C22.2985 23.9213 23.6268 25.5733 23.6268 28.0285C23.6268 29.0663 23.4797 29.985 23.2208 30.79" fill="#3F37C9"/>
</svg>
