<svg width="18" height="15" viewBox="0 0 18 15" fill="none" xmlns="http://www.w3.org/2000/svg">
<path fill-rule="evenodd" clip-rule="evenodd" d="M7 0.5H10.5C13.7996 0.5 15.4499 0.5 16.4745 1.5255C17.4991 2.551 17.5 4.20038 17.5 7.5C17.5 10.7996 17.5 12.4499 16.4745 13.4745C15.449 14.4991 13.7996 14.5 10.5 14.5H7C3.70038 14.5 2.05012 14.5 1.0255 13.4745C0.000874937 12.449 0 10.7996 0 7.5C0 4.20038 -1.04308e-07 2.55012 1.0255 1.5255C2.051 0.500875 3.70038 0.5 7 0.5ZM9.84375 4.875C9.84375 4.70095 9.91289 4.53403 10.036 4.41096C10.159 4.28789 10.326 4.21875 10.5 4.21875H14.875C15.049 4.21875 15.216 4.28789 15.339 4.41096C15.4621 4.53403 15.5312 4.70095 15.5312 4.875C15.5312 5.04905 15.4621 5.21597 15.339 5.33904C15.216 5.46211 15.049 5.53125 14.875 5.53125H10.5C10.326 5.53125 10.159 5.46211 10.036 5.33904C9.91289 5.21597 9.84375 5.04905 9.84375 4.875ZM10.7188 7.5C10.7188 7.32595 10.7879 7.15903 10.911 7.03596C11.034 6.91289 11.201 6.84375 11.375 6.84375H14.875C15.049 6.84375 15.216 6.91289 15.339 7.03596C15.4621 7.15903 15.5312 7.32595 15.5312 7.5C15.5312 7.67405 15.4621 7.84097 15.339 7.96404C15.216 8.08711 15.049 8.15625 14.875 8.15625H11.375C11.201 8.15625 11.034 8.08711 10.911 7.96404C10.7879 7.84097 10.7188 7.67405 10.7188 7.5ZM11.5938 10.125C11.5938 9.95095 11.6629 9.78403 11.786 9.66096C11.909 9.53789 12.076 9.46875 12.25 9.46875H14.875C15.049 9.46875 15.216 9.53789 15.339 9.66096C15.4621 9.78403 15.5312 9.95095 15.5312 10.125C15.5312 10.299 15.4621 10.466 15.339 10.589C15.216 10.7121 15.049 10.7812 14.875 10.7812H12.25C12.076 10.7812 11.909 10.7121 11.786 10.589C11.6629 10.466 11.5938 10.299 11.5938 10.125ZM7.875 4.875C7.875 5.33913 7.69063 5.78425 7.36244 6.11244C7.03425 6.44063 6.58913 6.625 6.125 6.625C5.66087 6.625 5.21575 6.44063 4.88756 6.11244C4.55937 5.78425 4.375 5.33913 4.375 4.875C4.375 4.41087 4.55937 3.96575 4.88756 3.63756C5.21575 3.30937 5.66087 3.125 6.125 3.125C6.58913 3.125 7.03425 3.30937 7.36244 3.63756C7.69063 3.96575 7.875 4.41087 7.875 4.875ZM6.125 11.875C9.625 11.875 9.625 11.0919 9.625 10.125C9.625 9.15812 8.05875 8.375 6.125 8.375C4.19125 8.375 2.625 9.15812 2.625 10.125C2.625 11.0919 2.625 11.875 6.125 11.875Z" fill="#3F37C9"/>
</svg>
