<svg width="39" height="40" viewBox="0 0 39 40" fill="none" xmlns="http://www.w3.org/2000/svg">
<path fill-rule="evenodd" clip-rule="evenodd" d="M11.8024 5.7975C11.8986 4.90052 12.323 4.07078 12.9941 3.46784C13.6651 2.86489 14.5354 2.53132 15.4375 2.53125H23.5625C24.4646 2.53132 25.3349 2.86489 26.0059 3.46784C26.677 4.07078 27.1014 4.90052 27.1976 5.7975C28.4391 5.8235 29.51 5.88687 30.4265 6.05587C31.6583 6.28337 32.7064 6.71237 33.5595 7.56712C34.5378 8.54375 34.957 9.77713 35.1553 11.2396C35.3438 12.6469 35.3438 14.4392 35.3438 16.6606V26.5894C35.3438 28.8108 35.3438 30.6031 35.1553 32.012C34.957 33.4745 34.5378 34.7062 33.5595 35.6845C32.5813 36.6628 31.3495 37.082 29.887 37.2803C28.4781 37.4688 26.6858 37.4688 24.4644 37.4688H14.5356C12.3142 37.4688 10.5219 37.4688 9.113 37.2803C7.6505 37.082 6.41875 36.6628 5.4405 35.6845C4.46225 34.7062 4.043 33.4745 3.84638 32.012C3.65625 30.6031 3.65625 28.8108 3.65625 26.5894V16.6606C3.65625 14.4392 3.65625 12.6469 3.84638 11.238C4.04138 9.7755 4.46388 8.54375 5.4405 7.5655C6.29363 6.71238 7.34175 6.28175 8.5735 6.05587C9.49 5.88687 10.5625 5.8235 11.8024 5.7975ZM11.8056 8.235C10.6389 8.261 9.73863 8.3195 9.01388 8.45275C8.09412 8.62175 7.5595 8.89475 7.16462 9.28962C6.7145 9.73975 6.422 10.3703 6.26112 11.5646C6.097 12.7899 6.09375 14.4181 6.09375 16.75V26.5C6.09375 28.8319 6.097 30.4585 6.26112 31.687C6.422 32.8797 6.71612 33.5103 7.16462 33.9604C7.61475 34.4105 8.24525 34.703 9.43962 34.8639C10.6649 35.028 12.2931 35.0312 14.625 35.0312H24.375C26.7069 35.0312 28.3335 35.028 29.562 34.8639C30.7547 34.703 31.3853 34.4089 31.8354 33.9604C32.2855 33.5103 32.578 32.8797 32.7389 31.6854C32.903 30.4585 32.9062 28.8319 32.9062 26.5V16.75C32.9062 14.4181 32.903 12.7899 32.7389 11.563C32.578 10.3703 32.2839 9.73975 31.8354 9.28962C31.4389 8.89475 30.9059 8.62337 29.9861 8.45275C29.2614 8.3195 28.3611 8.261 27.1944 8.23663C27.0904 9.12688 26.663 9.94793 25.9935 10.5438C25.3239 11.1397 24.4588 11.4688 23.5625 11.4688H15.4375C14.5409 11.4688 13.6756 11.1394 13.006 10.5432C12.3364 9.94699 11.9092 9.12555 11.8056 8.235ZM15.4375 4.96875C15.1143 4.96875 14.8043 5.09715 14.5757 5.32571C14.3472 5.55427 14.2188 5.86427 14.2188 6.1875V7.8125C14.2188 8.48525 14.7647 9.03125 15.4375 9.03125H23.5625C23.8857 9.03125 24.1957 8.90285 24.4243 8.67429C24.6528 8.44573 24.7812 8.13573 24.7812 7.8125V6.1875C24.7812 5.86427 24.6528 5.55427 24.4243 5.32571C24.1957 5.09715 23.8857 4.96875 23.5625 4.96875H15.4375ZM10.1562 17.5625C10.1562 17.2393 10.2847 16.9293 10.5132 16.7007C10.7418 16.4722 11.0518 16.3438 11.375 16.3438H12.1875C12.5107 16.3438 12.8207 16.4722 13.0493 16.7007C13.2778 16.9293 13.4062 17.2393 13.4062 17.5625C13.4062 17.8857 13.2778 18.1957 13.0493 18.4243C12.8207 18.6528 12.5107 18.7812 12.1875 18.7812H11.375C11.0518 18.7812 10.7418 18.6528 10.5132 18.4243C10.2847 18.1957 10.1562 17.8857 10.1562 17.5625ZM15.8438 17.5625C15.8438 17.2393 15.9722 16.9293 16.2007 16.7007C16.4293 16.4722 16.7393 16.3438 17.0625 16.3438H27.625C27.9482 16.3438 28.2582 16.4722 28.4868 16.7007C28.7153 16.9293 28.8438 17.2393 28.8438 17.5625C28.8438 17.8857 28.7153 18.1957 28.4868 18.4243C28.2582 18.6528 27.9482 18.7812 27.625 18.7812H17.0625C16.7393 18.7812 16.4293 18.6528 16.2007 18.4243C15.9722 18.1957 15.8438 17.8857 15.8438 17.5625ZM10.1562 23.25C10.1562 22.9268 10.2847 22.6168 10.5132 22.3882C10.7418 22.1597 11.0518 22.0312 11.375 22.0312H12.1875C12.5107 22.0312 12.8207 22.1597 13.0493 22.3882C13.2778 22.6168 13.4062 22.9268 13.4062 23.25C13.4062 23.5732 13.2778 23.8832 13.0493 24.1118C12.8207 24.3403 12.5107 24.4688 12.1875 24.4688H11.375C11.0518 24.4688 10.7418 24.3403 10.5132 24.1118C10.2847 23.8832 10.1562 23.5732 10.1562 23.25ZM15.8438 23.25C15.8438 22.9268 15.9722 22.6168 16.2007 22.3882C16.4293 22.1597 16.7393 22.0312 17.0625 22.0312H27.625C27.9482 22.0312 28.2582 22.1597 28.4868 22.3882C28.7153 22.6168 28.8438 22.9268 28.8438 23.25C28.8438 23.5732 28.7153 23.8832 28.4868 24.1118C28.2582 24.3403 27.9482 24.4688 27.625 24.4688H17.0625C16.7393 24.4688 16.4293 24.3403 16.2007 24.1118C15.9722 23.8832 15.8438 23.5732 15.8438 23.25ZM10.1562 28.9375C10.1562 28.6143 10.2847 28.3043 10.5132 28.0757C10.7418 27.8472 11.0518 27.7188 11.375 27.7188H12.1875C12.5107 27.7188 12.8207 27.8472 13.0493 28.0757C13.2778 28.3043 13.4062 28.6143 13.4062 28.9375C13.4062 29.2607 13.2778 29.5707 13.0493 29.7993C12.8207 30.0278 12.5107 30.1562 12.1875 30.1562H11.375C11.0518 30.1562 10.7418 30.0278 10.5132 29.7993C10.2847 29.5707 10.1562 29.2607 10.1562 28.9375ZM15.8438 28.9375C15.8438 28.6143 15.9722 28.3043 16.2007 28.0757C16.4293 27.8472 16.7393 27.7188 17.0625 27.7188H27.625C27.9482 27.7188 28.2582 27.8472 28.4868 28.0757C28.7153 28.3043 28.8438 28.6143 28.8438 28.9375C28.8438 29.2607 28.7153 29.5707 28.4868 29.7993C28.2582 30.0278 27.9482 30.1562 27.625 30.1562H17.0625C16.7393 30.1562 16.4293 30.0278 16.2007 29.7993C15.9722 29.5707 15.8438 29.2607 15.8438 28.9375Z" fill="#3F37C9"/>
</svg>
