<svg width="20" height="20" viewBox="0 0 20 20" fill="none" xmlns="http://www.w3.org/2000/svg">
<path fill-rule="evenodd" clip-rule="evenodd" d="M0 10C0 5.286 0 2.929 1.464 1.464C2.93 0 5.286 0 10 0C14.714 0 17.071 0 18.535 1.464C20 2.93 20 5.286 20 10C20 14.714 20 17.071 18.535 18.535C17.072 20 14.714 20 10 20C5.286 20 2.929 20 1.464 18.535C0 17.072 0 14.714 0 10ZM9.663 9.25C9.47917 8.47465 9.01698 7.79383 8.36422 7.33682C7.71146 6.87981 6.91359 6.67846 6.12214 6.771C5.33069 6.86354 4.60079 7.24353 4.07107 7.8388C3.54135 8.43407 3.24869 9.20316 3.24869 10C3.24869 10.7968 3.54135 11.5659 4.07107 12.1612C4.60079 12.7565 5.33069 13.1365 6.12214 13.229C6.91359 13.3215 7.71146 13.1202 8.36422 12.6632C9.01698 12.2062 9.47917 11.5253 9.663 10.75H12.75V11.5C12.75 11.6989 12.829 11.8897 12.9697 12.0303C13.1103 12.171 13.3011 12.25 13.5 12.25C13.6989 12.25 13.8897 12.171 14.0303 12.0303C14.171 11.8897 14.25 11.6989 14.25 11.5V10.75H15C15.0663 10.75 15.1299 10.7763 15.1768 10.8232C15.2237 10.8701 15.25 10.9337 15.25 11V12C15.25 12.1989 15.329 12.3897 15.4697 12.5303C15.6103 12.671 15.8011 12.75 16 12.75C16.1989 12.75 16.3897 12.671 16.5303 12.5303C16.671 12.3897 16.75 12.1989 16.75 12V11C16.75 10.5359 16.5656 10.0908 16.2374 9.76256C15.9092 9.43437 15.4641 9.25 15 9.25H9.663Z" fill="#3F37C9"/>
</svg>
