<svg width="77" height="77" viewBox="0 0 77 77" fill="none" xmlns="http://www.w3.org/2000/svg">
<path fill-rule="evenodd" clip-rule="evenodd" d="M38.5003 8.82288C37.4367 8.82288 36.4166 9.2454 35.6645 9.9975C34.9124 10.7496 34.4899 11.7697 34.4899 12.8333C34.4899 13.8969 34.9124 14.917 35.6645 15.6691C36.4166 16.4212 37.4367 16.8437 38.5003 16.8437C39.564 16.8437 40.584 16.4212 41.3361 15.6691C42.0882 14.917 42.5107 13.8969 42.5107 12.8333C42.5107 11.7697 42.0882 10.7496 41.3361 9.9975C40.584 9.2454 39.564 8.82288 38.5003 8.82288ZM29.6774 12.8333C29.6774 10.4933 30.607 8.24917 32.2616 6.59455C33.9162 4.93993 36.1603 4.01038 38.5003 4.01038C40.8403 4.01038 43.0844 4.93993 44.7391 6.59455C46.3937 8.24917 47.3232 10.4933 47.3232 12.8333C47.3232 15.1733 46.3937 17.4174 44.7391 19.072C43.0844 20.7267 40.8403 21.6562 38.5003 21.6562C36.1603 21.6562 33.9162 20.7267 32.2616 19.072C30.607 17.4174 29.6774 15.1733 29.6774 12.8333ZM54.5099 22.9845C56.3427 22.5855 58.2588 22.9052 59.8628 23.8777C61.4668 24.8502 62.6363 26.4012 63.1302 28.2107C63.6241 30.0203 63.4045 31.9504 62.5169 33.6029C61.6293 35.2553 60.1413 36.5041 58.3599 37.0915L51.3786 39.4175C51.0143 39.5378 50.6527 39.6661 50.2942 39.8025C50.1648 39.8839 50.0613 40.0004 49.996 40.1385C49.9306 40.2767 49.906 40.4306 49.9252 40.5822L49.983 40.7747C50.0503 40.9736 50.1498 41.2335 50.3166 41.6666L54.3174 52.068C54.9604 53.7456 54.9465 55.6041 54.2786 57.2719C53.6106 58.9398 52.3378 60.2941 50.7146 61.0642C49.0914 61.8342 47.2374 61.9633 45.5231 61.4256C43.8088 60.8879 42.3606 59.723 41.468 58.1638L38.5003 52.9792L35.5326 58.1702C34.6409 59.7317 33.1922 60.8988 31.4767 61.4377C29.7612 61.9766 27.9054 61.8476 26.281 61.0765C24.6565 60.3055 23.3832 58.9492 22.7161 57.2794C22.049 55.6096 22.0373 53.7493 22.6832 52.0712L26.684 41.6698C26.8001 41.3754 26.9114 41.0791 27.0177 40.7811L27.0755 40.5886C27.0952 40.4365 27.071 40.2819 27.0056 40.1431C26.9402 40.0044 26.8364 39.8873 26.7065 39.8057L26.5204 39.7288C26.2229 39.6206 25.9234 39.5179 25.6221 39.4207L18.6407 37.0883C16.8593 36.5009 15.3713 35.2521 14.4837 33.5997C13.5961 31.9472 13.3766 30.0171 13.8704 28.2075C14.3643 26.398 15.5339 24.847 17.1379 23.8745C18.7418 22.902 20.6579 22.5823 22.4907 22.9813L28.5769 24.2838L29.2379 24.425C35.3461 25.6883 41.6482 25.6883 47.7564 24.425C47.9168 24.3929 48.0772 24.3608 48.4173 24.2838L54.5099 22.9845ZM58.5524 30.1455C58.5524 28.5445 57.0766 27.3542 55.5173 27.6911L49.4215 28.9969L48.7349 29.1413C41.7528 30.586 34.5441 30.5368 27.5824 28.9969L21.4865 27.6911C20.8569 27.5501 20.1972 27.6571 19.6445 27.9898C19.0917 28.3225 18.6883 28.8554 18.5182 29.4777C18.3481 30.1001 18.4242 30.764 18.7308 31.3317C19.0374 31.8994 19.551 32.3271 20.1647 32.526L27.1428 34.8521L27.3193 34.9098C27.977 35.128 28.6668 35.3558 29.2282 35.7055C31.1212 36.8701 32.1446 39.0422 31.843 41.2431C31.7532 41.9008 31.4901 42.5745 31.2431 43.2226L31.1757 43.3927L27.1749 53.7941C26.96 54.3409 26.9606 54.9488 27.1766 55.4952C27.3925 56.0416 27.8078 56.4857 28.3384 56.7378C28.8691 56.9899 29.4757 57.0312 30.0356 56.8535C30.5956 56.6757 31.0673 56.2921 31.3554 55.78L36.4117 46.9315C36.6222 46.5634 36.9263 46.2576 37.2931 46.0448C37.6598 45.8321 38.0763 45.7201 38.5003 45.7201C38.9243 45.7201 39.3408 45.8321 39.7076 46.0448C40.0744 46.2576 40.3784 46.5634 40.589 46.9315L45.6453 55.78C45.9334 56.2921 46.405 56.6757 46.965 56.8535C47.525 57.0312 48.1315 56.9899 48.6622 56.7378C49.1929 56.4857 49.6081 56.0416 49.8241 55.4952C50.0401 54.9488 50.0406 54.3409 49.8257 53.7941L45.825 43.3927L45.7608 43.2226C45.5073 42.5745 45.2474 41.9008 45.1576 41.2431C45.0106 40.166 45.1794 39.0694 45.6436 38.0864C46.1077 37.1034 46.8473 36.2763 47.7724 35.7055C48.3371 35.3526 49.0237 35.128 49.6814 34.9098L49.8578 34.8521L56.8359 32.526C57.3363 32.3605 57.7716 32.0413 58.0798 31.6138C58.388 31.1863 58.5534 30.6725 58.5524 30.1455ZM16.735 45.4396C17.0217 46.0097 17.0703 46.6704 16.8699 47.2762C16.6695 47.8821 16.2367 48.3836 15.6666 48.6704C10.7899 51.1247 8.82324 53.8839 8.82324 56.1458C8.82324 58.597 11.1461 61.616 16.8024 64.1602C22.2309 66.605 29.902 68.177 38.5003 68.177C47.0987 68.177 54.7698 66.605 60.1983 64.1602C65.8546 61.616 68.1774 58.597 68.1774 56.1458C68.1774 53.8839 66.2139 51.1247 61.334 48.6704C61.0493 48.5298 60.7953 48.3343 60.5865 48.0951C60.3777 47.8559 60.2183 47.5778 60.1175 47.2767C60.0167 46.9756 59.9765 46.6576 59.9992 46.3409C60.0219 46.0242 60.107 45.7152 60.2496 45.4315C60.3923 45.1479 60.5897 44.8953 60.8304 44.6883C61.0712 44.4813 61.3505 44.324 61.6523 44.2254C61.9541 44.1268 62.2724 44.089 62.5889 44.114C62.9054 44.139 63.2139 44.2264 63.4964 44.3712C68.7774 47.0277 72.9899 51.0125 72.9899 56.1458C72.9899 61.6705 68.1293 65.867 62.1746 68.5492C55.9922 71.3308 47.6184 72.9895 38.5003 72.9895C29.3822 72.9895 21.0085 71.3308 14.826 68.5492C8.87137 65.867 4.01074 61.6705 4.01074 56.1458C4.01074 51.0125 8.22328 47.0277 13.5074 44.3712C14.0772 44.0855 14.7371 44.0375 15.3422 44.2378C15.9473 44.4381 16.4482 44.8703 16.735 45.4396Z" fill="#3F37C9"/>
</svg>
