<svg width="77" height="77" viewBox="0 0 77 77" fill="none" xmlns="http://www.w3.org/2000/svg">
<path fill-rule="evenodd" clip-rule="evenodd" d="M38.5003 8.823C37.4367 8.823 36.4166 9.24552 35.6645 9.99762C34.9124 10.7497 34.4899 11.7698 34.4899 12.8334C34.4899 13.897 34.9124 14.9171 35.6645 15.6692C36.4166 16.4213 37.4367 16.8438 38.5003 16.8438C39.564 16.8438 40.584 16.4213 41.3361 15.6692C42.0882 14.9171 42.5107 13.897 42.5107 12.8334C42.5107 11.7698 42.0882 10.7497 41.3361 9.99762C40.584 9.24552 39.564 8.823 38.5003 8.823ZM29.6774 12.8334C29.6774 10.4934 30.607 8.24929 32.2616 6.59467C33.9162 4.94005 36.1603 4.0105 38.5003 4.0105C40.8403 4.0105 43.0844 4.94005 44.7391 6.59467C46.3937 8.24929 47.3232 10.4934 47.3232 12.8334C47.3232 15.1734 46.3937 17.4175 44.7391 19.0722C43.0844 20.7268 40.8403 21.6563 38.5003 21.6563C36.1603 21.6563 33.9162 20.7268 32.2616 19.0722C30.607 17.4175 29.6774 15.1734 29.6774 12.8334ZM54.5099 22.9846C56.3427 22.5856 58.2588 22.9054 59.8628 23.8778C61.4668 24.8503 62.6363 26.4013 63.1302 28.2109C63.6241 30.0204 63.4045 31.9505 62.5169 33.603C61.6293 35.2555 60.1413 36.5042 58.3599 37.0916L51.3786 39.4177C51.0143 39.5379 50.6527 39.6662 50.2942 39.8027C50.1648 39.884 50.0613 40.0005 49.996 40.1387C49.9306 40.2768 49.906 40.4307 49.9252 40.5823L49.983 40.7748C50.0503 40.9737 50.1498 41.2336 50.3166 41.6667L54.3174 52.0681C54.9604 53.7458 54.9465 55.6042 54.2786 57.2721C53.6106 58.9399 52.3378 60.2942 50.7146 61.0643C49.0914 61.8344 47.2374 61.9634 45.5231 61.4257C43.8088 60.888 42.3606 59.7231 41.468 58.164L38.5003 52.9793L35.5326 58.1704C34.6409 59.7319 33.1922 60.8989 31.4767 61.4378C29.7612 61.9767 27.9054 61.8477 26.281 61.0766C24.6565 60.3056 23.3832 58.9494 22.7161 57.2795C22.049 55.6097 22.0373 53.7495 22.6832 52.0713L26.684 41.6699C26.8001 41.3755 26.9114 41.0793 27.0177 40.7812L27.0755 40.5887C27.0952 40.4366 27.071 40.282 27.0056 40.1433C26.9402 40.0045 26.8364 39.8874 26.7065 39.8059L26.5204 39.7289C26.2229 39.6207 25.9234 39.518 25.6221 39.4209L18.6407 37.0884C16.8593 36.501 15.3713 35.2522 14.4837 33.5998C13.5961 31.9473 13.3766 30.0172 13.8704 28.2077C14.3643 26.3981 15.5339 24.8471 17.1379 23.8746C18.7418 22.9022 20.6579 22.5824 22.4907 22.9814L28.5769 24.284L29.2379 24.4251C35.3461 25.6884 41.6482 25.6884 47.7564 24.4251C47.9168 24.393 48.0772 24.361 48.4173 24.284L54.5099 22.9846ZM58.5524 30.1456C58.5524 28.5446 57.0766 27.3543 55.5173 27.6912L49.4215 28.997L48.7349 29.1414C41.7528 30.5861 34.5441 30.5369 27.5824 28.997L21.4865 27.6912C20.8569 27.5502 20.1972 27.6572 19.6445 27.9899C19.0917 28.3226 18.6883 28.8555 18.5182 29.4779C18.3481 30.1002 18.4242 30.7642 18.7308 31.3318C19.0374 31.8995 19.551 32.3272 20.1647 32.5262L27.1428 34.8522L27.3193 34.91C27.977 35.1281 28.6668 35.3559 29.2282 35.7056C31.1212 36.8702 32.1446 39.0423 31.843 41.2432C31.7532 41.9009 31.4901 42.5747 31.2431 43.2227L31.1757 43.3928L27.1749 53.7942C26.96 54.341 26.9606 54.949 27.1766 55.4953C27.3925 56.0417 27.8078 56.4858 28.3384 56.7379C28.8691 56.99 29.4757 57.0313 30.0356 56.8536C30.5956 56.6758 31.0673 56.2922 31.3554 55.7802L36.4117 46.9316C36.6222 46.5635 36.9263 46.2577 37.2931 46.045C37.6598 45.8322 38.0763 45.7202 38.5003 45.7202C38.9243 45.7202 39.3408 45.8322 39.7076 46.045C40.0744 46.2577 40.3784 46.5635 40.589 46.9316L45.6453 55.7802C45.9334 56.2922 46.405 56.6758 46.965 56.8536C47.525 57.0313 48.1315 56.99 48.6622 56.7379C49.1929 56.4858 49.6081 56.0417 49.8241 55.4953C50.0401 54.949 50.0406 54.341 49.8257 53.7942L45.825 43.3928L45.7608 43.2227C45.5073 42.5747 45.2474 41.9009 45.1576 41.2432C45.0106 40.1661 45.1794 39.0695 45.6436 38.0865C46.1077 37.1035 46.8473 36.2764 47.7724 35.7056C48.3371 35.3527 49.0237 35.1281 49.6814 34.91L49.8578 34.8522L56.8359 32.5262C57.3363 32.3606 57.7716 32.0414 58.0798 31.6139C58.388 31.1864 58.5534 30.6726 58.5524 30.1456ZM16.735 45.4397C17.0217 46.0098 17.0703 46.6705 16.8699 47.2764C16.6695 47.8822 16.2367 48.3837 15.6666 48.6705C10.7899 51.1249 8.82324 53.884 8.82324 56.1459C8.82324 58.5971 11.1461 61.6161 16.8024 64.1603C22.2309 66.6051 29.902 68.1772 38.5003 68.1772C47.0987 68.1772 54.7698 66.6051 60.1983 64.1603C65.8546 61.6161 68.1774 58.5971 68.1774 56.1459C68.1774 53.884 66.2139 51.1249 61.334 48.6705C61.0493 48.5299 60.7953 48.3344 60.5865 48.0952C60.3777 47.8561 60.2183 47.5779 60.1175 47.2768C60.0167 46.9758 59.9765 46.6577 59.9992 46.341C60.0219 46.0244 60.107 45.7153 60.2496 45.4316C60.3923 45.148 60.5897 44.8954 60.8304 44.6884C61.0712 44.4814 61.3505 44.3241 61.6523 44.2255C61.9541 44.127 62.2724 44.0891 62.5889 44.1141C62.9054 44.1391 63.2139 44.2266 63.4964 44.3713C68.7774 47.0278 72.9899 51.0126 72.9899 56.1459C72.9899 61.6707 68.1293 65.8672 62.1746 68.5493C55.9922 71.331 47.6184 72.9897 38.5003 72.9897C29.3822 72.9897 21.0085 71.331 14.826 68.5493C8.87137 65.8672 4.01074 61.6707 4.01074 56.1459C4.01074 51.0126 8.22328 47.0278 13.5074 44.3713C14.0772 44.0856 14.7371 44.0376 15.3422 44.2379C15.9473 44.4382 16.4482 44.8705 16.735 45.4397Z" fill="#868899"/>
</svg>
