<svg width="676" height="122" viewBox="0 0 676 122" fill="none" xmlns="http://www.w3.org/2000/svg">
<path d="M145.799 99.2123C143.817 99.2123 142.367 98.9646 141.447 98.4693C140.527 97.9032 140.067 97.1248 140.067 96.1341V28.627C140.067 26.0088 141.305 24.6997 143.782 24.6997H164.798C173.644 24.6997 180.154 26.5041 184.329 30.113C188.574 33.7219 190.697 38.9229 190.697 45.7161C190.697 48.7588 190.202 51.4832 189.211 53.8891C188.291 56.295 186.876 58.3117 184.966 59.9393C183.126 61.496 180.861 62.6636 178.172 63.442V63.8666C179.729 64.3619 181.144 65.4233 182.418 67.0509C183.763 68.6784 184.859 70.6244 185.709 72.8887L194.2 94.1174C194.483 94.7543 194.695 95.3204 194.837 95.8157C194.978 96.311 195.049 96.7356 195.049 97.0894C195.049 97.8678 194.625 98.4339 193.775 98.7877C192.926 99.0708 191.511 99.2123 189.53 99.2123H186.239C184.895 99.2123 183.727 99.0354 182.737 98.6816C181.746 98.3278 181.038 97.6201 180.614 96.5587L172.334 76.073C171.698 74.3747 170.919 73.0303 169.999 72.0396C169.079 70.9782 167.876 70.1998 166.39 69.7044C164.975 69.2091 163.1 68.9614 160.765 68.9614H154.184V96.1341C154.184 97.1248 153.724 97.9032 152.804 98.4693C151.955 98.9646 150.504 99.2123 148.452 99.2123H145.799ZM154.184 57.7102H165.329C169.221 57.7102 172.016 56.8965 173.714 55.2689C175.483 53.6414 176.368 50.9878 176.368 47.3082C176.368 43.5578 175.483 40.8335 173.714 39.1352C172.016 37.4369 169.221 36.5877 165.329 36.5877H154.184V57.7102ZM208.567 99C206.09 99 204.852 97.6909 204.852 95.0727V28.627C204.852 26.0088 206.09 24.6997 208.567 24.6997H231.812C242.639 24.6997 250.918 27.8486 256.65 34.1464C262.452 40.4443 265.353 49.6434 265.353 61.7437C265.353 73.7733 262.452 83.0077 256.65 89.4471C250.918 95.8157 242.639 99 231.812 99H208.567ZM218.969 87.1119H231.812C238.11 87.1119 242.886 84.9891 246.141 80.7433C249.396 76.4269 251.024 70.0936 251.024 61.7437C251.024 53.4645 249.396 47.2021 246.141 42.9563C242.886 38.7106 238.11 36.5877 231.812 36.5877H218.969V87.1119ZM276.794 99C276.086 99 275.449 98.717 274.883 98.1509C274.317 97.5848 273.822 96.8771 273.397 96.028C273.043 95.1081 272.76 94.2236 272.548 93.3744C272.406 92.4545 272.336 91.6407 272.336 90.9331C272.336 90.7208 272.336 90.4024 272.336 89.9778C272.336 89.4825 272.548 88.9164 272.972 88.2795L311.184 31.2806L314.262 36.5877H276.794C274.954 36.5877 274.034 35.0663 274.034 32.0236V29.2638C274.034 26.2211 274.954 24.6997 276.794 24.6997H321.48C322.188 24.6997 322.789 24.9827 323.284 25.5488C323.85 26.1149 324.31 26.8579 324.664 27.7778C325.089 28.627 325.407 29.5115 325.62 30.4314C325.832 31.2806 325.938 32.0589 325.938 32.7666C325.938 33.3327 325.903 33.7926 325.832 34.1464C325.761 34.5002 325.549 34.9248 325.195 35.4201L287.089 92.4191L284.011 87.1119H323.072C324.912 87.1119 325.832 88.6333 325.832 91.6761V94.4358C325.832 97.4786 324.912 99 323.072 99H276.794ZM368.969 99.2123C366.988 99.2123 365.537 98.9646 364.617 98.4693C363.697 97.9032 363.237 97.1248 363.237 96.1341V27.5655C363.237 26.5749 363.697 25.8319 364.617 25.3365C365.537 24.7704 366.988 24.4874 368.969 24.4874H371.623C373.675 24.4874 375.125 24.7704 375.975 25.3365C376.894 25.8319 377.354 26.5749 377.354 27.5655V55.0567H410.79V27.5655C410.79 26.5749 411.25 25.8319 412.169 25.3365C413.089 24.7704 414.54 24.4874 416.521 24.4874H419.175C421.227 24.4874 422.678 24.7704 423.527 25.3365C424.447 25.8319 424.907 26.5749 424.907 27.5655V96.1341C424.907 97.1248 424.447 97.9032 423.527 98.4693C422.678 98.9646 421.227 99.2123 419.175 99.2123H416.521C414.54 99.2123 413.089 98.9646 412.169 98.4693C411.25 97.9032 410.79 97.1248 410.79 96.1341V66.9447H377.354V96.1341C377.354 97.1248 376.894 97.9032 375.975 98.4693C375.125 98.9646 373.675 99.2123 371.623 99.2123H368.969ZM464.859 99.743C455.73 99.743 448.973 97.3371 444.585 92.5253C440.198 87.7134 438.005 80.7433 438.005 71.615C438.005 64.8926 439.031 59.4085 441.083 55.1628C443.206 50.9171 446.178 47.8035 449.999 45.8222C453.82 43.7701 458.278 42.744 463.373 42.744C468.751 42.744 473.067 43.947 476.322 46.3529C479.648 48.6881 482.054 51.9077 483.54 56.012C485.097 60.0454 485.875 64.6449 485.875 69.8106C485.875 70.589 485.592 71.4735 485.026 72.4642C484.46 73.3841 483.788 74.1625 483.009 74.7993C482.231 75.4362 481.488 75.7546 480.78 75.7546H451.697C451.839 80.5664 453.112 83.9984 455.518 86.0505C457.924 88.0319 461.215 89.0225 465.39 89.0225C468.149 89.0225 470.555 88.6687 472.607 87.9611C474.659 87.2535 476.322 86.5458 477.596 85.8382C478.94 85.1306 479.896 84.7768 480.462 84.7768C481.099 84.7768 481.7 85.2367 482.266 86.1567C482.903 87.0766 483.434 88.1026 483.858 89.2348C484.283 90.367 484.495 91.2515 484.495 91.8884C484.495 92.8083 483.858 93.7282 482.585 94.6481C481.382 95.568 479.754 96.4526 477.702 97.3017C475.721 98.0801 473.598 98.6816 471.334 99.1061C469.069 99.5307 466.911 99.743 464.859 99.743ZM451.591 66.3079H472.926C472.926 62.0621 472.041 58.8778 470.272 56.755C468.574 54.5613 466.026 53.4645 462.63 53.4645C460.719 53.4645 458.915 53.8891 457.216 54.7382C455.589 55.5166 454.244 56.8257 453.183 58.6655C452.192 60.5054 451.662 63.0528 451.591 66.3079ZM511.462 99.743C505.943 99.743 501.803 98.3278 499.044 95.4973C496.284 92.596 494.904 88.8102 494.904 84.1399C494.904 81.451 495.329 78.9389 496.178 76.6038C497.098 74.1978 498.69 72.1104 500.954 70.3413C503.219 68.5015 506.438 67.0862 510.613 66.0956C514.859 65.0341 520.308 64.5034 526.959 64.5034V60.6823C526.959 59.1963 526.641 57.9225 526.004 56.8611C525.438 55.7997 524.447 54.9859 523.032 54.4198C521.688 53.7829 519.883 53.4645 517.619 53.4645C514.859 53.4645 512.382 53.7829 510.189 54.4198C508.066 54.9859 506.261 55.5874 504.775 56.2242C503.36 56.7903 502.334 57.0734 501.697 57.0734C501.273 57.0734 500.848 56.7903 500.423 56.2242C499.999 55.6581 499.61 54.9859 499.256 54.2075C498.902 53.3584 498.619 52.5446 498.407 51.7662C498.194 50.9171 498.088 50.2448 498.088 49.7495C498.088 48.9004 498.69 48.0866 499.893 47.3082C501.096 46.4591 502.688 45.6807 504.669 44.9731C506.651 44.2654 508.844 43.7347 511.25 43.3809C513.727 42.9563 516.168 42.744 518.574 42.744C522.395 42.744 525.686 43.1686 528.445 44.0178C531.205 44.7961 533.469 45.9637 535.238 47.5205C537.008 49.0773 538.317 50.9171 539.166 53.0399C540.015 55.1628 540.439 57.498 540.439 60.0454V81.2741C540.439 84.6707 540.51 87.3242 540.652 89.2348C540.864 91.1454 541.076 92.596 541.289 93.5867C541.501 94.5774 541.607 95.3911 541.607 96.028C541.607 96.5941 541.218 97.0894 540.439 97.514C539.661 97.8678 538.706 98.1862 537.574 98.4693C536.512 98.6816 535.415 98.8585 534.283 99C533.222 99.0708 532.373 99.1061 531.736 99.1061C530.745 99.1061 530.002 98.7523 529.507 98.0447C529.082 97.3371 528.728 96.4172 528.445 95.285C528.233 94.1528 528.021 92.9852 527.808 91.7823C527.172 92.5606 526.146 93.5867 524.73 94.8604C523.386 96.1341 521.581 97.2663 519.317 98.257C517.123 99.2477 514.505 99.743 511.462 99.743ZM515.071 89.0225C516.84 89.0225 518.468 88.7041 519.954 88.0672C521.44 87.4304 522.784 86.5812 523.987 85.5198C525.19 84.4584 526.181 83.2908 526.959 82.0171V73.9502C523.492 73.9502 520.591 74.1271 518.256 74.4809C515.92 74.8347 514.01 75.3654 512.524 76.073C511.109 76.7807 510.083 77.736 509.446 78.9389C508.809 80.0711 508.49 81.3802 508.49 82.8662C508.49 84.7768 509.021 86.2982 510.083 87.4304C511.215 88.4918 512.878 89.0225 515.071 89.0225ZM569.939 99.743C566.755 99.743 564.066 99.1769 561.872 98.0447C559.749 96.9125 558.157 95.2142 557.096 92.9498C556.034 90.6147 555.504 87.8196 555.504 84.5645V22.1522C555.504 21.1616 555.928 20.4186 556.777 19.9232C557.626 19.3571 559.077 19.0741 561.129 19.0741H563.358C565.41 19.0741 566.861 19.3571 567.71 19.9232C568.559 20.4186 568.984 21.1616 568.984 22.1522V83.8215C568.984 85.6613 569.267 86.9704 569.833 87.7488C570.47 88.4564 571.567 88.8102 573.123 88.8102C574.468 88.8102 575.458 88.6687 576.095 88.3857C576.803 88.0319 577.404 87.855 577.9 87.855C578.324 87.855 578.678 88.1734 578.961 88.8102C579.315 89.3763 579.598 90.1193 579.81 91.0393C580.023 91.8884 580.164 92.7375 580.235 93.5867C580.376 94.4358 580.447 95.0373 580.447 95.3911C580.447 96.1695 579.881 96.9125 578.749 97.6201C577.617 98.3278 576.237 98.8585 574.609 99.2123C572.982 99.5661 571.425 99.743 569.939 99.743ZM603.467 99.743C600.283 99.743 597.594 99.1769 595.4 98.0447C593.277 96.9125 591.685 95.2142 590.624 92.9498C589.562 90.6147 589.032 87.8196 589.032 84.5645V54.2075H584.998C583.088 54.2075 582.132 52.6861 582.132 49.6434V48.0512C582.132 45.0084 583.088 43.487 584.998 43.487H589.032L590.624 33.085C590.765 32.0236 591.225 31.2452 592.004 30.7498C592.782 30.2545 593.879 30.0068 595.294 30.0068H597.841C599.54 30.0068 600.743 30.2545 601.45 30.7498C602.229 31.2452 602.618 32.0236 602.618 33.085V43.487H609.942C611.852 43.487 612.808 45.0084 612.808 48.0512V49.6434C612.808 52.6861 611.852 54.2075 609.942 54.2075H602.618V83.8215C602.618 85.5906 602.901 86.8643 603.467 87.6427C604.104 88.421 605.165 88.8102 606.651 88.8102C607.996 88.8102 609.022 88.6687 609.73 88.3857C610.437 88.0319 611.039 87.855 611.534 87.855C611.888 87.855 612.206 88.1734 612.489 88.8102C612.843 89.3763 613.126 90.1193 613.338 91.0393C613.551 91.8884 613.692 92.7375 613.763 93.5867C613.904 94.4358 613.975 95.0373 613.975 95.3911C613.975 96.1695 613.409 96.9125 612.277 97.6201C611.145 98.3278 609.765 98.8585 608.137 99.2123C606.581 99.5661 605.024 99.743 603.467 99.743ZM628.814 99.2123C626.832 99.2123 625.382 98.9646 624.462 98.4693C623.613 97.9032 623.188 97.1248 623.188 96.1341V22.1522C623.188 21.1616 623.613 20.4186 624.462 19.9232C625.382 19.3571 626.832 19.0741 628.814 19.0741H630.937C632.989 19.0741 634.439 19.3571 635.288 19.9232C636.208 20.4186 636.668 21.1616 636.668 22.1522V50.1741C637.73 48.8296 639.039 47.5912 640.596 46.4591C642.152 45.3269 643.886 44.4423 645.797 43.8055C647.778 43.0978 649.866 42.744 652.059 42.744C655.668 42.744 658.675 43.3809 661.081 44.6546C663.558 45.9283 665.398 47.8389 666.601 50.3864C667.804 52.863 668.405 56.0473 668.405 59.9393V96.1341C668.405 97.1248 667.945 97.9032 667.025 98.4693C666.176 98.9646 664.761 99.2123 662.78 99.2123H660.551C658.498 99.2123 657.012 98.9646 656.093 98.4693C655.243 97.9032 654.819 97.1248 654.819 96.1341V61.7437C654.819 59.1963 654.217 57.2503 653.014 55.9058C651.811 54.5613 649.83 53.8891 647.07 53.8891C645.797 53.8891 644.488 54.1721 643.143 54.7382C641.799 55.2336 640.56 55.9766 639.428 56.9672C638.367 57.9579 637.482 59.1255 636.774 60.47V96.1341C636.774 97.1248 636.315 97.9032 635.395 98.4693C634.545 98.9646 633.13 99.2123 631.149 99.2123H628.814Z" fill="#3F37C9"/>
<path d="M50.625 5C55.1925 5 59.5968 6.5077 68.4111 9.52832L71.6348 10.6309C88.5488 16.4189 97.0034 19.3153 99.124 22.3359C101.25 25.3622 101.25 34.3626 101.25 52.3457V61.1992C101.25 92.9127 77.4059 108.308 62.4434 114.839C58.3877 116.611 56.3625 117.5 50.625 117.5C44.8875 117.5 42.8623 116.611 38.8066 114.839C23.8441 108.303 0 92.9184 0 61.1992V52.3457C0 34.357 -0.000261896 25.3622 2.12598 22.3359C4.24658 19.3153 12.7012 16.4189 29.6152 10.6309L32.8389 9.52832C41.6532 6.5077 46.0575 5 50.625 5ZM50.626 20.625C49.7724 20.625 48.9532 20.9638 48.3496 21.5674C47.746 22.171 47.4072 22.9901 47.4072 23.8438V54.4941L19.6455 43.3857C18.8527 43.0656 17.9647 43.073 17.1777 43.4072C16.3908 43.7415 15.7694 44.3752 15.4492 45.168C15.1291 45.9608 15.1364 46.8488 15.4707 47.6357C15.6362 48.0252 15.8769 48.3782 16.1787 48.6748C16.4807 48.9715 16.8389 49.2057 17.2314 49.3643L45.46 60.6504L25.5557 86.2432C25.0459 86.9181 24.8226 87.767 24.9336 88.6055C25.0446 89.4437 25.481 90.2045 26.1484 90.7236C26.8162 91.2428 27.662 91.479 28.502 91.3799C29.3418 91.2807 30.1092 90.8546 30.6377 90.1943L50.626 64.4805L70.626 90.1738C70.883 90.5142 71.2057 90.8008 71.5742 91.0156C71.9425 91.2302 72.3499 91.3698 72.7725 91.4258C73.1953 91.4817 73.6255 91.4524 74.0371 91.3408C74.4486 91.2292 74.8343 91.0371 75.1709 90.7754C75.5074 90.5137 75.7885 90.1877 75.998 89.8164C76.2076 89.4449 76.3416 89.0349 76.3916 88.6113C76.4415 88.1879 76.4064 87.7586 76.2891 87.3486C76.1717 86.9388 75.9743 86.5565 75.708 86.2236L55.8037 60.6299L84.0205 49.3643C84.413 49.2057 84.7703 48.9714 85.0723 48.6748C85.3742 48.3782 85.6148 48.0252 85.7803 47.6357C85.9457 47.2462 86.0333 46.8275 86.0371 46.4043C86.0409 45.9809 85.9612 45.5605 85.8027 45.168C85.6443 44.7755 85.4099 44.4182 85.1133 44.1162C84.8166 43.8142 84.4629 43.5727 84.0732 43.4072C83.6837 43.2418 83.265 43.1552 82.8418 43.1514C82.4186 43.1476 81.9989 43.2273 81.6064 43.3857L53.8447 54.4941V23.8438C53.8447 22.9901 53.505 22.171 52.9014 21.5674C52.2978 20.964 51.4794 20.6251 50.626 20.625Z" fill="#3F37C9"/>
</svg>
