<svg width="15" height="15" viewBox="0 0 15 15" fill="none" xmlns="http://www.w3.org/2000/svg">
<path d="M5.50715 2.88562C6.39403 1.2952 6.83712 0.5 7.5 0.5C8.16288 0.5 8.60597 1.2952 9.49285 2.88562L9.72245 3.29722C9.97444 3.74942 10.1004 3.97552 10.2964 4.12462C10.4924 4.27372 10.7374 4.32902 11.2274 4.43963L11.6726 4.54043C13.3946 4.93033 14.2548 5.12493 14.4599 5.78363C14.6643 6.44164 14.0777 7.12834 12.9039 8.50105L12.6001 8.85595C12.2669 9.24586 12.0996 9.44116 12.0247 9.68196C11.9498 9.92346 11.975 10.1839 12.0254 10.704L12.0716 11.1779C12.2487 13.0098 12.3376 13.9254 11.8014 14.3321C11.2652 14.7388 10.4588 14.3678 8.84747 13.6258L8.42958 13.434C7.97179 13.2226 7.74289 13.1176 7.5 13.1176C7.25711 13.1176 7.02821 13.2226 6.57042 13.434L6.15323 13.6258C4.54117 14.3678 3.73479 14.7388 3.1993 14.3328C2.66241 13.9254 2.75131 13.0098 2.92841 11.1779L2.97461 10.7047C3.02501 10.1839 3.0502 9.92346 2.97461 9.68266C2.90041 9.44116 2.73311 9.24586 2.39992 8.85665L2.09613 8.50105C0.922255 7.12904 0.335668 6.44234 0.540064 5.78363C0.744459 5.12493 1.60614 4.92963 3.3281 4.54043L3.77329 4.43963C4.26258 4.32902 4.50687 4.27372 4.70357 4.12462C4.90026 3.97552 5.02556 3.74942 5.27755 3.29722L5.50715 2.88562Z" fill="#FDAA2B"/>
</svg>
