<svg width="27" height="34" viewBox="0 0 27 34" fill="none" xmlns="http://www.w3.org/2000/svg">
<path fill-rule="evenodd" clip-rule="evenodd" d="M13.25 2.37121C11.0885 2.37162 8.97808 3.0282 7.19785 4.2541C5.41762 5.48 4.05148 7.21745 3.28015 9.23663C2.50881 11.2558 2.36863 13.4616 2.87813 15.5622C3.38763 17.6627 4.52282 19.5592 6.13353 21.0006L6.13828 21.0069C7.01914 21.796 7.68809 22.3938 8.16568 22.8335C8.61639 23.2446 8.97222 23.5831 9.16041 23.8139L9.17939 23.8377C9.53046 24.2694 9.8341 24.6458 10.0365 25.0965C10.2374 25.5456 10.3133 26.0248 10.4018 26.5736L10.4066 26.6052C10.4524 26.8867 10.4698 27.2314 10.4777 27.6742H16.0223C16.0302 27.2314 16.0476 26.8867 16.0934 26.6052L16.0982 26.5736C16.1867 26.0248 16.2627 25.5456 16.4635 25.0965C16.6659 24.6458 16.9696 24.2694 17.3206 23.8377L17.3396 23.8139C17.5278 23.5831 17.8836 23.2446 18.3343 22.8335C18.8119 22.3938 19.4809 21.796 20.3617 21.0069L20.3681 21.0006C21.9789 19.5591 23.1141 17.6625 23.6236 15.5618C24.133 13.461 23.9927 11.2551 23.2212 9.23589C22.4496 7.21664 21.0833 5.4792 19.3028 4.25343C17.5223 3.02765 15.4116 2.3713 13.25 2.37121ZM16.008 30.0464H10.492C10.4983 30.2098 10.5067 30.3558 10.5173 30.4845C10.5489 30.8403 10.6043 30.97 10.6422 31.0348C10.7462 31.2147 10.8956 31.3641 11.0755 31.4681C11.1388 31.5061 11.27 31.5598 11.6259 31.5931C11.9975 31.6263 12.4893 31.6278 13.25 31.6278C14.0107 31.6278 14.5025 31.6278 14.8742 31.5931C15.23 31.5614 15.3597 31.5061 15.4245 31.4681C15.6044 31.3641 15.7538 31.2147 15.8578 31.0348C15.8958 30.9715 15.9511 30.8403 15.9827 30.4845C15.9933 30.3558 16.0017 30.2098 16.008 30.0464ZM0.203134 13.0459C0.203293 10.8698 0.747741 8.72836 1.78691 6.81644C2.82609 4.90451 4.32698 3.28288 6.15294 2.09916C7.97891 0.915442 10.0719 0.207244 12.2415 0.0390385C14.4111 -0.129167 16.5883 0.247962 18.5749 1.13609C20.5615 2.02422 22.2944 3.39515 23.6158 5.12405C24.9373 6.85296 25.8053 8.88494 26.1408 11.035C26.4764 13.185 26.2688 15.3849 25.5371 17.4342C24.8053 19.4836 23.5726 21.3174 21.9511 22.7686C21.2764 23.3693 20.6049 23.9734 19.9363 24.5809C19.7002 24.7979 19.4682 25.0194 19.2405 25.2452L19.1836 25.3068C18.7724 25.8145 18.6823 25.9457 18.6301 26.0643C18.5763 26.1829 18.5383 26.3363 18.4356 26.9816C18.3944 27.2362 18.3897 27.6727 18.3897 28.8603V28.9109C18.3897 29.6068 18.3897 30.2077 18.3454 30.698C18.298 31.2198 18.1936 31.7354 17.9137 32.2209C17.6013 32.7621 17.1518 33.2116 16.6106 33.524C16.1251 33.8039 15.6095 33.9083 15.0892 33.9557C14.5958 34 13.9965 34 13.3022 34H13.1994C12.5036 34 11.9026 34 11.4124 33.9557C10.8905 33.9083 10.375 33.8039 9.88945 33.524C9.34818 33.2116 8.89874 32.7621 8.58634 32.2209C8.30643 31.7354 8.20206 31.2198 8.15461 30.6995C8.11033 30.2061 8.11033 29.6068 8.11033 28.9125V28.8603C8.11033 27.6742 8.10559 27.2362 8.06447 26.9816C7.96168 26.3363 7.92214 26.1829 7.86995 26.0643C7.81777 25.9457 7.72762 25.8145 7.31645 25.3052L7.30063 25.2894L7.25952 25.2436L7.10612 25.0902C6.92766 24.9179 6.74684 24.7482 6.56368 24.5809C6.09716 24.154 5.4377 23.5641 4.54893 22.7686C3.17996 21.546 2.08505 20.0478 1.33607 18.3721C0.587101 16.6965 0.201005 14.8813 0.203134 13.0459Z" fill="#3F37C9"/>
<path fill-rule="evenodd" clip-rule="evenodd" d="M15.1832 10.4998C15.4389 10.6827 15.6116 10.9597 15.6632 11.2699C15.7148 11.5801 15.6411 11.8981 15.4583 12.154L13.4088 15.0227H15.8489C16.0669 15.0228 16.2805 15.0829 16.4665 15.1964C16.6525 15.3099 16.8036 15.4725 16.9033 15.6663C17.003 15.8601 17.0473 16.0775 17.0315 16.2949C17.0157 16.5122 16.9403 16.721 16.8136 16.8983L13.4246 21.6426C13.3357 21.7733 13.2216 21.8849 13.0889 21.9709C12.9562 22.0569 12.8077 22.1154 12.6521 22.1432C12.4965 22.1709 12.3369 22.1673 12.1827 22.1325C12.0285 22.0977 11.8828 22.0324 11.7542 21.9405C11.6256 21.8485 11.5167 21.7318 11.4338 21.5972C11.3509 21.4626 11.2958 21.3128 11.2717 21.1565C11.2476 21.0003 11.2549 20.8408 11.2933 20.6875C11.3317 20.5341 11.4004 20.39 11.4952 20.2636L13.5432 17.3949H11.1046C10.8867 17.3948 10.6731 17.3347 10.4871 17.2212C10.3011 17.1076 10.1499 16.945 10.0503 16.7513C9.95061 16.5575 9.90626 16.34 9.92208 16.1227C9.93789 15.9053 10.0133 15.6966 10.14 15.5193L13.5274 10.7749C13.618 10.6481 13.7327 10.5403 13.865 10.4578C13.9972 10.3753 14.1445 10.3197 14.2982 10.2941C14.452 10.2686 14.6093 10.2736 14.7612 10.3089C14.913 10.3442 15.0564 10.409 15.1832 10.4998Z" fill="#3F37C9"/>
</svg>
