<svg width="78" height="77" viewBox="0 0 78 77" fill="none" xmlns="http://www.w3.org/2000/svg">
<path d="M61.6257 38.5001C61.6257 39.351 61.2876 40.167 60.686 40.7687C60.0843 41.3704 59.2682 41.7084 58.4173 41.7084C57.5664 41.7084 56.7504 41.3704 56.1487 40.7687C55.547 40.167 55.209 39.351 55.209 38.5001C55.209 37.6492 55.547 36.8331 56.1487 36.2314C56.7504 35.6298 57.5664 35.2917 58.4173 35.2917C59.2682 35.2917 60.0843 35.6298 60.686 36.2314C61.2876 36.8331 61.6257 37.6492 61.6257 38.5001Z" fill="#868899"/>
<path fill-rule="evenodd" clip-rule="evenodd" d="M32.571 10.427H42.5553C48.4522 10.427 53.1236 10.427 56.7779 10.9179C60.538 11.4248 63.5827 12.49 65.9858 14.8898C68.9503 17.8575 69.8967 21.8294 70.24 26.9852C72.0912 27.7969 73.4901 29.5198 73.6409 31.7015C73.6569 31.8972 73.6569 32.1057 73.6569 32.2982V44.7016C73.6569 44.8941 73.6569 45.1027 73.6441 45.2952C73.4901 47.4768 72.0912 49.2029 70.24 50.0178C69.8967 55.1704 68.9503 59.1423 65.9858 62.11C63.5827 64.5099 60.538 65.575 56.7779 66.082C53.1204 66.5728 48.4522 66.5728 42.5553 66.5728H32.571C26.6741 66.5728 22.0027 66.5728 18.3484 66.082C14.5883 65.575 11.5436 64.5099 9.14053 62.11C6.74069 59.707 5.67553 56.6623 5.16861 52.9021C4.67773 49.2446 4.67773 44.5765 4.67773 38.6796V38.3203C4.67773 32.4233 4.67773 27.752 5.16861 24.0977C5.67553 20.3375 6.74069 17.2928 9.14053 14.8898C11.5436 12.49 14.5883 11.4248 18.3484 10.9179C22.0059 10.427 26.6741 10.427 32.571 10.427ZM65.373 50.5312H59.1552C52.2734 50.5312 46.3829 45.308 46.3829 38.4999C46.3829 31.6918 52.2734 26.4687 59.152 26.4687H65.3698C65.004 22.1663 64.1795 19.8916 62.5785 18.2938C61.2214 16.9367 59.3606 16.1218 56.133 15.6887C52.838 15.2459 48.4907 15.2395 42.3724 15.2395H32.7474C26.6291 15.2395 22.2851 15.2459 18.9837 15.6887C15.7593 16.1218 13.8985 16.9367 12.5414 18.2938C11.1842 19.651 10.3725 21.5118 9.9394 24.7362C9.49665 28.0343 9.49023 32.3784 9.49023 38.4967C9.49023 44.615 9.49665 48.9623 9.9394 52.2605C10.3725 55.4848 11.1874 57.3457 12.5446 58.7028C13.9017 60.0599 15.7625 60.8748 18.9901 61.308C22.2883 61.7507 26.6324 61.7571 32.7507 61.7571H42.3756C48.4939 61.7571 52.8412 61.7507 56.1394 61.308C59.3638 60.8748 61.2246 60.0599 62.5817 58.7028C64.1827 57.105 65.0072 54.8335 65.373 50.528M17.5111 25.6666C17.5111 25.0284 17.7646 24.4164 18.2158 23.9651C18.6671 23.5138 19.2791 23.2603 19.9173 23.2603H32.7507C33.3888 23.2603 34.0009 23.5138 34.4521 23.9651C34.9034 24.4164 35.1569 25.0284 35.1569 25.6666C35.1569 26.3048 34.9034 26.9168 34.4521 27.3681C34.0009 27.8193 33.3888 28.0728 32.7507 28.0728H19.9173C19.2791 28.0728 18.6671 27.8193 18.2158 27.3681C17.7646 26.9168 17.5111 26.3048 17.5111 25.6666ZM67.7985 31.2812H59.1552C54.5866 31.2812 51.1954 34.6788 51.1954 38.4999C51.1954 42.321 54.5866 45.7187 59.152 45.7187H67.8723C68.5332 45.677 68.8187 45.231 68.8412 44.9615V32.0383C68.8187 31.7688 68.5332 31.3229 67.8723 31.2844L67.7985 31.2812Z" fill="#868899"/>
</svg>
