<svg width="78" height="77" viewBox="0 0 78 77" fill="none" xmlns="http://www.w3.org/2000/svg">
<path d="M61.6257 38.5C61.6257 39.3509 61.2876 40.1669 60.686 40.7686C60.0843 41.3703 59.2682 41.7083 58.4173 41.7083C57.5664 41.7083 56.7504 41.3703 56.1487 40.7686C55.547 40.1669 55.209 39.3509 55.209 38.5C55.209 37.6491 55.547 36.833 56.1487 36.2313C56.7504 35.6296 57.5664 35.2916 58.4173 35.2916C59.2682 35.2916 60.0843 35.6296 60.686 36.2313C61.2876 36.833 61.6257 37.6491 61.6257 38.5Z" fill="#3F37C9"/>
<path fill-rule="evenodd" clip-rule="evenodd" d="M32.571 10.4271H42.5553C48.4522 10.4271 53.1236 10.4271 56.7779 10.918C60.538 11.4249 63.5827 12.4901 65.9858 14.8899C68.9503 17.8576 69.8967 21.8295 70.24 26.9853C72.0912 27.797 73.4901 29.5199 73.6409 31.7016C73.6569 31.8973 73.6569 32.1058 73.6569 32.2983V44.7017C73.6569 44.8942 73.6569 45.1028 73.6441 45.2953C73.4901 47.477 72.0912 49.203 70.24 50.018C69.8967 55.1705 68.9503 59.1425 65.9858 62.1102C63.5827 64.51 60.538 65.5752 56.7779 66.0821C53.1204 66.573 48.4522 66.573 42.5553 66.573H32.571C26.6741 66.573 22.0027 66.573 18.3484 66.0821C14.5883 65.5752 11.5436 64.51 9.14053 62.1102C6.74069 59.7071 5.67553 56.6624 5.16861 52.9022C4.67773 49.2448 4.67773 44.5766 4.67773 38.6797V38.3204C4.67773 32.4235 4.67773 27.7521 5.16861 24.0978C5.67553 20.3377 6.74069 17.293 9.14053 14.8899C11.5436 12.4901 14.5883 11.4249 18.3484 10.918C22.0059 10.4271 26.6741 10.4271 32.571 10.4271ZM65.373 50.5313H59.1552C52.2734 50.5313 46.3829 45.3081 46.3829 38.5C46.3829 31.692 52.2734 26.4688 59.152 26.4688H65.3698C65.004 22.1664 64.1795 19.8917 62.5785 18.294C61.2214 16.9368 59.3606 16.1219 56.133 15.6888C52.838 15.246 48.4907 15.2396 42.3724 15.2396H32.7474C26.6291 15.2396 22.2851 15.246 18.9837 15.6888C15.7593 16.1219 13.8985 16.9368 12.5414 18.294C11.1842 19.6511 10.3725 21.5119 9.9394 24.7363C9.49665 28.0345 9.49023 32.3785 9.49023 38.4968C9.49023 44.6151 9.49665 48.9624 9.9394 52.2606C10.3725 55.485 11.1874 57.3458 12.5446 58.7029C13.9017 60.06 15.7625 60.875 18.9901 61.3081C22.2883 61.7508 26.6324 61.7572 32.7507 61.7572H42.3756C48.4939 61.7572 52.8412 61.7508 56.1394 61.3081C59.3638 60.875 61.2246 60.06 62.5817 58.7029C64.1827 57.1052 65.0072 54.8337 65.373 50.5281M17.5111 25.6667C17.5111 25.0285 17.7646 24.4165 18.2158 23.9652C18.6671 23.514 19.2791 23.2605 19.9173 23.2605H32.7507C33.3888 23.2605 34.0009 23.514 34.4521 23.9652C34.9034 24.4165 35.1569 25.0285 35.1569 25.6667C35.1569 26.3049 34.9034 26.9169 34.4521 27.3682C34.0009 27.8194 33.3888 28.073 32.7507 28.073H19.9173C19.2791 28.073 18.6671 27.8194 18.2158 27.3682C17.7646 26.9169 17.5111 26.3049 17.5111 25.6667ZM67.7985 31.2813H59.1552C54.5866 31.2813 51.1954 34.6789 51.1954 38.5C51.1954 42.3212 54.5866 45.7188 59.152 45.7188H67.8723C68.5332 45.6771 68.8187 45.2311 68.8412 44.9616V32.0385C68.8187 31.769 68.5332 31.323 67.8723 31.2845L67.7985 31.2813Z" fill="#3F37C9"/>
</svg>
