<svg width="19" height="20" viewBox="0 0 19 20" fill="none" xmlns="http://www.w3.org/2000/svg">
<path d="M10.2988 15.4512V15.4502C10.3766 15.7142 10.5352 15.9475 10.752 16.1172C10.9699 16.2876 11.2363 16.3854 11.5127 16.3965C11.5286 16.3971 11.5446 16.397 11.5605 16.3965C11.8197 16.3879 12.0709 16.3036 12.2822 16.1533C12.49 16.0056 12.6493 15.8003 12.7432 15.5635L12.7441 15.5645L14.5527 11.1416L14.5537 11.1377C14.5546 11.1354 14.5566 11.1333 14.5586 11.1318L14.5664 11.1289H18.4385C17.9146 16.003 14.075 18.4473 11.6006 19.5273C10.8799 19.8422 10.5198 20 9.5 20C8.48022 20 8.1201 19.8422 7.39941 19.5273C4.92496 18.4464 1.08531 16.0037 0.561523 11.1289H3.80957C4.04836 11.1262 4.28252 11.0604 4.4873 10.9375C4.69207 10.8146 4.86079 10.6391 4.97559 10.4297C4.9795 10.4225 4.98366 10.4155 4.9873 10.4082L7.3584 5.66406L10.2988 15.4512ZM9.5 0C10.312 0 11.0951 0.267687 12.6621 0.804688L13.2354 1.00098C16.2421 2.02991 17.7451 2.54505 18.1221 3.08203C18.5 3.62008 18.5 5.2201 18.5 8.41699V9.80957H14.5625V9.80859L14.5576 9.80957C14.2931 9.81132 14.0351 9.89125 13.8164 10.04C13.5988 10.1882 13.4299 10.3977 13.3311 10.6416L11.5439 15.0078L8.61914 5.27539C8.55517 5.05487 8.4342 4.85577 8.26855 4.69824L8.19336 4.63184L8.11328 4.57227C7.92818 4.44411 7.7125 4.36694 7.4873 4.34766L7.48828 4.34668C7.48027 4.34599 7.4719 4.34527 7.46387 4.34473L7.46289 4.3457C7.23899 4.32672 7.01428 4.36422 6.81055 4.45703L6.72168 4.50195C6.48893 4.6302 6.30103 4.8266 6.18262 5.06445L3.81543 9.79688C3.81327 9.80008 3.81095 9.80367 3.80762 9.80566C3.80376 9.80789 3.79938 9.80948 3.79492 9.80957H0.5V8.41699C0.5 5.2191 0.499968 3.62008 0.87793 3.08203C1.25492 2.54505 2.75785 2.02991 5.76465 1.00098L6.33789 0.804688C7.90489 0.267687 8.688 0 9.5 0Z" fill="#3F37C9"/>
</svg>
